<svg xmlns='http://www.w3.org/2000/svg' class="pikchr" viewBox="0 0 2100.94 3952.8">
<path d="M2,32L237,32L237,2L2,2Z"  style="fill:none;stroke-width:2.16;stroke:rgb(0,0,0);" />
<text x="119" y="17" text-anchor="middle" fill="rgb(0,0,0)" dominant-baseline="central">2 Cozonaci pufoși cu nucă</text>
<polygon points="309,17 297,21 297,12" style="fill:rgb(0,0,0)"/>
<path d="M237,17L303,17"  style="fill:none;stroke-width:2.16;stroke:rgb(0,0,0);" />
<path d="M309,32L485,32L485,2L309,2Z"  style="fill:none;stroke-width:2.16;stroke:rgb(0,0,0);" />
<text x="397" y="17" text-anchor="middle" fill="rgb(0,0,0)" dominant-baseline="central">Toate ingredientele</text>
<polygon points="517,104 505,108 505,100" style="fill:rgb(0,0,0)"/>
<path d="M397,32L397,104L511,104"  style="fill:none;stroke-width:2.16;stroke-linejoin:round;stroke:rgb(0,0,0);" />
<path d="M517,119L572,119L572,89L517,89Z"  style="fill:none;stroke-width:2.16;stroke:rgb(0,0,0);" />
<text x="544" y="104" text-anchor="middle" fill="rgb(0,0,0)" dominant-baseline="central">Cocă</text>
<path d="M544,119L544,134"  style="fill:none;stroke-width:2.16;stroke:rgb(0,0,0);" />
<path d="M466,164L623,164A15 15 0 0 0 638 149L638,149A15 15 0 0 0 623 134L466,134A15 15 0 0 0 451 149L451,149A15 15 0 0 0 466 164Z"  style="fill:rgb(255,193,7);stroke-width:2.16;stroke:rgb(0,0,0);" />
<text x="544" y="149" text-anchor="middle" fill="rgb(0,0,0)" dominant-baseline="central">făină 1000g (+200g)</text>
<path d="M638,149L710,149"  style="fill:none;stroke-width:2.16;stroke:rgb(0,0,0);" />
<path d="M710,174L866,174L866,124L710,124Z"  style="fill:rgb(255,193,7);stroke-width:2.16;stroke:rgb(0,0,0);" />
<text x="788" y="139" text-anchor="middle" fill="rgb(0,0,0)" dominant-baseline="central">într-un vas mare</text>
<text x="788" y="159" text-anchor="middle" fill="rgb(0,0,0)" dominant-baseline="central">diametru 40 cm</text>
<path d="M544,164L544,194"  style="fill:none;stroke-width:2.16;stroke:rgb(0,0,0);" />
<path d="M423,225L666,225A15 15 0 0 0 681 210L681,209A15 15 0 0 0 666 194L423,194A15 15 0 0 0 408 209L408,210A15 15 0 0 0 423 225Z"  style="fill:rgb(173,216,230);stroke-width:2.16;stroke:rgb(0,0,0);" />
<text x="544" y="209" text-anchor="middle" fill="rgb(0,0,0)" dominant-baseline="central">lapte 500g [+40g pentru nucă]</text>
<path d="M681,209L696,209"  style="fill:none;stroke-width:2.16;stroke:rgb(0,0,0);" />
<path d="M696,235L870,235L870,184L696,184Z"  style="fill:rgb(173,216,230);stroke-width:2.16;stroke:rgb(0,0,0);" />
<text x="783" y="199" text-anchor="middle" fill="rgb(0,0,0)" dominant-baseline="central">într-un ibric</text>
<text x="783" y="219" text-anchor="middle" fill="rgb(0,0,0)" dominant-baseline="central">pentru a fi încălzit</text>
<path d="M544,225L544,255"  style="fill:none;stroke-width:2.16;stroke:rgb(0,0,0);" />
<path d="M494,285L595,285A15 15 0 0 0 610 270L610,270A15 15 0 0 0 595 255L494,255A15 15 0 0 0 479 270L479,270A15 15 0 0 0 494 285Z"  style="fill:rgb(7,255,20);stroke-width:2.16;stroke:rgb(0,0,0);" />
<text x="544" y="270" text-anchor="middle" fill="rgb(0,0,0)" dominant-baseline="central">lapte 4 linguri</text>
<path d="M610,270L625,270"  style="fill:none;stroke-width:2.16;stroke:rgb(0,0,0);" />
<path d="M625,295L825,295L825,244L625,244Z"  style="fill:rgb(7,255,20);stroke-width:2.16;stroke:rgb(0,0,0);" />
<text x="725" y="260" text-anchor="middle" fill="rgb(0,0,0)" dominant-baseline="central">într-un vas conic</text>
<text x="725" y="280" text-anchor="middle" fill="rgb(0,0,0)" dominant-baseline="central">diametru 10 cm (ibric)</text>
<path d="M544,285L544,315"  style="fill:none;stroke-width:2.16;stroke:rgb(0,0,0);" />
<path d="M459,345L630,345A15 15 0 0 0 645 330L645,330A15 15 0 0 0 630 315L459,315A15 15 0 0 0 444 330L444,330A15 15 0 0 0 459 345Z"  style="fill:none;stroke-width:2.16;stroke:rgb(0,0,0);" />
<text x="544" y="330" text-anchor="middle" fill="rgb(0,0,0)" dominant-baseline="central">drojdie proaspătă 75g</text>
<path d="M544,345L544,360"  style="fill:none;stroke-width:2.16;stroke:rgb(0,0,0);" />
<path d="M516,390L573,390A15 15 0 0 0 588 375L588,375A15 15 0 0 0 573 360L516,360A15 15 0 0 0 501 375L501,375A15 15 0 0 0 516 390Z"  style="fill:rgb(211,211,211);stroke-width:2.16;stroke:rgb(0,0,0);" />
<text x="544" y="375" text-anchor="middle" fill="rgb(0,0,0)" dominant-baseline="central">unt 200g</text>
<path d="M588,375L603,375"  style="fill:none;stroke-width:2.16;stroke:rgb(0,0,0);" />
<path d="M603,400L776,400L776,350L603,350Z"  style="fill:rgb(211,211,211);stroke-width:2.16;stroke:rgb(0,0,0);" />
<text x="689" y="365" text-anchor="middle" fill="rgb(0,0,0)" dominant-baseline="central">într-un bol metalic</text>
<text x="689" y="385" text-anchor="middle" fill="rgb(0,0,0)" dominant-baseline="central">pentru topire</text>
<path d="M544,390L544,420"  style="fill:none;stroke-width:2.16;stroke:rgb(0,0,0);" />
<path d="M506,450L582,450A15 15 0 0 0 597 435L597,435A15 15 0 0 0 582 420L506,420A15 15 0 0 0 491 435L491,435A15 15 0 0 0 506 450Z"  style="fill:none;stroke-width:2.16;stroke:rgb(0,0,0);" />
<text x="544" y="435" text-anchor="middle" fill="rgb(0,0,0)" dominant-baseline="central">zahar 250g</text>
<path d="M544,450L544,540"  style="fill:none;stroke-width:2.16;stroke:rgb(0,0,0);" />
<path d="M512,571L577,571A15 15 0 0 0 592 556L592,555A15 15 0 0 0 577 540L512,540A15 15 0 0 0 497 555L497,556A15 15 0 0 0 512 571Z"  style="fill:none;stroke-width:2.16;stroke:rgb(0,0,0);" />
<text x="544" y="556" text-anchor="middle" fill="rgb(0,0,0)" dominant-baseline="central">ouă 6 buc</text>
<polygon points="664,526 652,530 652,521" style="fill:rgb(0,0,0)"/>
<path d="M592,556L592,526L658,526"  style="fill:none;stroke-width:2.16;stroke-linejoin:round;stroke:rgb(0,0,0);" />
<path d="M679,541L816,541A15 15 0 0 0 831 526L831,525A15 15 0 0 0 816 510L679,510A15 15 0 0 0 664 525L664,526A15 15 0 0 0 679 541Z"  style="fill:rgb(0,255,255);stroke-width:2.16;stroke:rgb(0,0,0);" />
<text x="747" y="526" text-anchor="middle" fill="rgb(0,0,0)" dominant-baseline="central">gălbenușuri 5 buc</text>
<path d="M831,526L846,526"  style="fill:none;stroke-width:2.16;stroke:rgb(0,0,0);" />
<path d="M846,551L989,551L989,500L846,500Z"  style="fill:rgb(0,255,255);stroke-width:2.16;stroke:rgb(0,0,0);" />
<text x="917" y="516" text-anchor="middle" fill="rgb(0,0,0)" dominant-baseline="central">într-un bol</text>
<text x="917" y="536" text-anchor="middle" fill="rgb(0,0,0)" dominant-baseline="central">pentru amestec</text>
<polygon points="664,473 652,477 652,469" style="fill:rgb(0,0,0)"/>
<path d="M592,556L592,473L658,473"  style="fill:none;stroke-width:2.16;stroke-linejoin:round;stroke:rgb(0,0,0);" />
<path d="M679,488L816,488A15 15 0 0 0 831 473L831,473A15 15 0 0 0 816 458L679,458A15 15 0 0 0 664 473L664,473A15 15 0 0 0 679 488Z"  style="fill:none;stroke-width:2.16;stroke:rgb(0,0,0);" />
<text x="747" y="473" text-anchor="middle" fill="rgb(0,0,0)" dominant-baseline="central">gălbenușuri 1 buc</text>
<polygon points="664,586 652,590 652,581" style="fill:rgb(0,0,0)"/>
<path d="M592,556L592,586L658,586"  style="fill:none;stroke-width:2.16;stroke-linejoin:round;stroke:rgb(0,0,0);" />
<path d="M679,601L784,601A15 15 0 0 0 799 586L799,585A15 15 0 0 0 784 570L679,570A15 15 0 0 0 664 585L664,586A15 15 0 0 0 679 601Z"  style="fill:rgb(189,183,107);stroke-width:2.16;stroke:rgb(0,0,0);" />
<text x="731" y="586" text-anchor="middle" fill="rgb(0,0,0)" dominant-baseline="central">albușuri 3 buc</text>
<path d="M799,586L814,586"  style="fill:none;stroke-width:2.16;stroke:rgb(0,0,0);" />
<path d="M814,611L986,611L986,560L814,560Z"  style="fill:rgb(189,183,107);stroke-width:2.16;stroke:rgb(0,0,0);" />
<text x="900" y="576" text-anchor="middle" fill="rgb(0,0,0)" dominant-baseline="central">într-un bol</text>
<text x="900" y="596" text-anchor="middle" fill="rgb(0,0,0)" dominant-baseline="central">pentru bătut mixer</text>
<polygon points="664,646 652,650 652,641" style="fill:rgb(0,0,0)"/>
<path d="M592,556L592,646L658,646"  style="fill:none;stroke-width:2.16;stroke-linejoin:round;stroke:rgb(0,0,0);" />
<path d="M679,661L784,661A15 15 0 0 0 799 646L799,645A15 15 0 0 0 784 630L679,630A15 15 0 0 0 664 645L664,646A15 15 0 0 0 679 661Z"  style="fill:none;stroke-width:2.16;stroke:rgb(0,0,0);" />
<text x="731" y="646" text-anchor="middle" fill="rgb(0,0,0)" dominant-baseline="central">albușuri 3 buc</text>
<path d="M544,571L544,676"  style="fill:none;stroke-width:2.16;stroke:rgb(0,0,0);" />
<path d="M437,706L652,706A15 15 0 0 0 667 691L667,691A15 15 0 0 0 652 676L437,676A15 15 0 0 0 422 691L422,691A15 15 0 0 0 437 706Z"  style="fill:none;stroke-width:2.16;stroke:rgb(0,0,0);" />
<text x="544" y="691" text-anchor="middle" fill="rgb(0,0,0)" dominant-baseline="central">esență de rom 2 fiole (20g)</text>
<path d="M544,706L544,721"  style="fill:none;stroke-width:2.16;stroke:rgb(0,0,0);" />
<path d="M470,751L619,751A15 15 0 0 0 634 736L634,736A15 15 0 0 0 619 721L470,721A15 15 0 0 0 455 736L455,736A15 15 0 0 0 470 751Z"  style="fill:none;stroke-width:2.16;stroke:rgb(0,0,0);" />
<text x="544" y="736" text-anchor="middle" fill="rgb(0,0,0)" dominant-baseline="central">coajă rasă 1 lamâie</text>
<path d="M544,751L544,766"  style="fill:none;stroke-width:2.16;stroke:rgb(0,0,0);" />
<path d="M452,796L636,796A15 15 0 0 0 651 781L651,781A15 15 0 0 0 636 766L452,766A15 15 0 0 0 437 781L437,781A15 15 0 0 0 452 796Z"  style="fill:none;stroke-width:2.16;stroke:rgb(0,0,0);" />
<text x="544" y="781" text-anchor="middle" fill="rgb(0,0,0)" dominant-baseline="central">zahăr vanilinat 3 plicuri</text>
<path d="M544,796L544,811"  style="fill:none;stroke-width:2.16;stroke:rgb(0,0,0);" />
<path d="M485,842L603,842A15 15 0 0 0 618 827L618,826A15 15 0 0 0 603 811L485,811A15 15 0 0 0 470 826L470,827A15 15 0 0 0 485 842Z"  style="fill:none;stroke-width:2.16;stroke:rgb(0,0,0);" />
<text x="544" y="827" text-anchor="middle" fill="rgb(0,0,0)" dominant-baseline="central">sare 1 linguriță</text>
<polygon points="517,887 505,891 505,883" style="fill:rgb(0,0,0)"/>
<path d="M397,32L397,887L511,887"  style="fill:none;stroke-width:2.16;stroke-linejoin:round;stroke:rgb(0,0,0);" />
<path d="M517,902L586,902L586,872L517,872Z"  style="fill:none;stroke-width:2.16;stroke:rgb(0,0,0);" />
<text x="551" y="887" text-anchor="middle" fill="rgb(0,0,0)" dominant-baseline="central">Cremă</text>
<path d="M551,902L551,917"  style="fill:none;stroke-width:2.16;stroke:rgb(0,0,0);" />
<path d="M474,947L629,947A15 15 0 0 0 644 932L644,932A15 15 0 0 0 629 917L474,917A15 15 0 0 0 459 932L459,932A15 15 0 0 0 474 947Z"  style="fill:rgb(255,255,224);stroke-width:2.16;stroke:rgb(0,0,0);" />
<text x="551" y="932" text-anchor="middle" fill="rgb(0,0,0)" dominant-baseline="central">nucă macinată 250g</text>
<path d="M551,947L551,962"  style="fill:none;stroke-width:2.16;stroke:rgb(0,0,0);" />
<path d="M501,993L602,993A15 15 0 0 0 617 978L617,977A15 15 0 0 0 602 962L501,962A15 15 0 0 0 486 977L486,978A15 15 0 0 0 501 993Z"  style="fill:rgb(255,255,224);stroke-width:2.16;stroke:rgb(0,0,0);" />
<text x="551" y="977" text-anchor="middle" fill="rgb(0,0,0)" dominant-baseline="central">lapte 4 linguri</text>
<path d="M551,993L551,1008"  style="fill:none;stroke-width:2.16;stroke:rgb(0,0,0);" />
<path d="M498,1038L605,1038A15 15 0 0 0 620 1023L620,1023A15 15 0 0 0 605 1008L498,1008A15 15 0 0 0 483 1023L483,1023A15 15 0 0 0 498 1038Z"  style="fill:rgb(255,255,224);stroke-width:2.16;stroke:rgb(0,0,0);" />
<text x="551" y="1023" text-anchor="middle" fill="rgb(0,0,0)" dominant-baseline="central">zahăr 5 linguri</text>
<path d="M551,1038L551,1053"  style="fill:none;stroke-width:2.16;stroke:rgb(0,0,0);" />
<path d="M443,1083L660,1083A15 15 0 0 0 675 1068L675,1068A15 15 0 0 0 660 1053L443,1053A15 15 0 0 0 428 1068L428,1068A15 15 0 0 0 443 1083Z"  style="fill:rgb(255,255,224);stroke-width:2.16;stroke:rgb(0,0,0);" />
<text x="551" y="1068" text-anchor="middle" fill="rgb(0,0,0)" dominant-baseline="central">esență de rom 1 fiolă (10g)</text>
<path d="M551,1083L551,1098"  style="fill:none;stroke-width:2.16;stroke:rgb(0,0,0);" />
<path d="M495,1128L608,1128A15 15 0 0 0 623 1113L623,1113A15 15 0 0 0 608 1098L495,1098A15 15 0 0 0 480 1113L480,1113A15 15 0 0 0 495 1128Z"  style="fill:rgb(255,255,224);stroke-width:2.16;stroke:rgb(0,0,0);" />
<text x="551" y="1113" text-anchor="middle" fill="rgb(0,0,0)" dominant-baseline="central">cacao 1 lingură</text>
<polygon points="1070,17 1059,21 1059,12" style="fill:rgb(0,0,0)"/>
<path d="M485,17L1065,17"  style="fill:none;stroke-width:2.16;stroke:rgb(0,0,0);" />
<path d="M1070,32L1205,32L1205,2L1070,2Z"  style="fill:none;stroke-width:2.16;stroke:rgb(0,0,0);" />
<text x="1138" y="17" text-anchor="middle" fill="rgb(0,0,0)" dominant-baseline="central">12 ore înainte</text>
<polygon points="1138,62 1133,50 1142,50" style="fill:rgb(0,0,0)"/>
<path d="M1138,32L1138,56"  style="fill:none;stroke-width:2.16;stroke:rgb(0,0,0);" />
<path d="M1025,112L1251,112A15 15 0 0 0 1266 97L1266,77A15 15 0 0 0 1251 62L1025,62A15 15 0 0 0 1010 77L1010,97A15 15 0 0 0 1025 112Z"  style="fill:rgb(255,193,7);stroke-width:2.16;stroke:rgb(0,0,0);" />
<text x="1138" y="77" text-anchor="middle" fill="rgb(0,0,0)" dominant-baseline="central">cernut făină de 3 ori</text>
<text x="1138" y="97" text-anchor="middle" fill="rgb(0,0,0)" dominant-baseline="central">din vas într-o tavă și înapoi</text>
<polygon points="1138,142 1133,131 1142,131" style="fill:rgb(0,0,0)"/>
<path d="M1138,112L1138,137"  style="fill:none;stroke-width:2.16;stroke:rgb(0,0,0);" />
<path d="M996,213L1279,213A15 15 0 0 0 1294 198L1294,157A15 15 0 0 0 1279 142L996,142A15 15 0 0 0 981 157L981,198A15 15 0 0 0 996 213Z"  style="fill:none;stroke-width:2.16;stroke:rgb(0,0,0);" />
<text x="1138" y="157" text-anchor="middle" fill="rgb(0,0,0)" dominant-baseline="central">ingrediente la temperatura camerei</text>
<text x="1138" y="178" text-anchor="middle" fill="rgb(0,0,0)" dominant-baseline="central">ouăle, laptele, zahăr, făină</text>
<text x="1138" y="198" text-anchor="middle" fill="rgb(0,0,0)" dominant-baseline="central">...</text>
<polygon points="1445,17 1434,21 1434,12" style="fill:rgb(0,0,0)"/>
<path d="M1205,17L1440,17"  style="fill:none;stroke-width:2.16;stroke:rgb(0,0,0);" />
<path d="M1445,32L1526,32L1526,2L1445,2Z"  style="fill:none;stroke-width:2.16;stroke:rgb(0,0,0);" />
<text x="1486" y="17" text-anchor="middle" fill="rgb(0,0,0)" dominant-baseline="central">început</text>
<polygon points="1486,62 1481,50 1490,50" style="fill:rgb(0,0,0)"/>
<path d="M1486,32L1486,56"  style="fill:none;stroke-width:2.16;stroke:rgb(0,0,0);" />
<path d="M1403,112L1568,112A15 15 0 0 0 1583 97L1583,77A15 15 0 0 0 1568 62L1403,62A15 15 0 0 0 1388 77L1388,97A15 15 0 0 0 1403 112Z"  style="fill:rgb(0,255,255);stroke-width:2.16;stroke:rgb(0,0,0);" />
<text x="1486" y="77" text-anchor="middle" fill="rgb(0,0,0)" dominant-baseline="central">separă 5 gălbenușuri</text>
<text x="1486" y="97" text-anchor="middle" fill="rgb(0,0,0)" dominant-baseline="central">într-un castron</text>
<polygon points="1486,142 1481,131 1490,131" style="fill:rgb(0,0,0)"/>
<path d="M1486,112L1486,137"  style="fill:none;stroke-width:2.16;stroke:rgb(0,0,0);" />
<path d="M1446,173L1525,173A15 15 0 0 0 1540 158L1540,157A15 15 0 0 0 1525 142L1446,142A15 15 0 0 0 1431 157L1431,158A15 15 0 0 0 1446 173Z"  style="fill:rgb(0,255,255);stroke-width:2.16;stroke:rgb(0,0,0);" />
<text x="1486" y="157" text-anchor="middle" fill="rgb(0,0,0)" dominant-baseline="central">amestecare</text>
<polygon points="1486,203 1481,191 1490,191" style="fill:rgb(0,0,0)"/>
<path d="M1486,173L1486,197"  style="fill:none;stroke-width:2.16;stroke:rgb(0,0,0);" />
<path d="M1364,233L1607,233A15 15 0 0 0 1622 218L1622,218A15 15 0 0 0 1607 203L1364,203A15 15 0 0 0 1349 218L1349,218A15 15 0 0 0 1364 233Z"  style="fill:rgb(0,255,255);stroke-width:2.16;stroke:rgb(0,0,0);" />
<text x="1486" y="218" text-anchor="middle" fill="rgb(0,0,0)" dominant-baseline="central">răzătoare pentru coajă lămâie</text>
<polygon points="1486,263 1481,251 1490,251" style="fill:rgb(0,0,0)"/>
<path d="M1486,233L1486,257"  style="fill:none;stroke-width:2.16;stroke:rgb(0,0,0);" />
<path d="M1405,293L1566,293A15 15 0 0 0 1581 278L1581,278A15 15 0 0 0 1566 263L1405,263A15 15 0 0 0 1390 278L1390,278A15 15 0 0 0 1405 293Z"  style="fill:rgb(0,255,255);stroke-width:2.16;stroke:rgb(0,0,0);" />
<text x="1486" y="278" text-anchor="middle" fill="rgb(0,0,0)" dominant-baseline="central">adaugă coajă lămâie</text>
<polygon points="1486,323 1481,312 1490,312" style="fill:rgb(0,0,0)"/>
<path d="M1486,293L1486,317"  style="fill:none;stroke-width:2.16;stroke:rgb(0,0,0);" />
<path d="M1446,353L1525,353A15 15 0 0 0 1540 338L1540,338A15 15 0 0 0 1525 323L1446,323A15 15 0 0 0 1431 338L1431,338A15 15 0 0 0 1446 353Z"  style="fill:rgb(0,255,255);stroke-width:2.16;stroke:rgb(0,0,0);" />
<text x="1486" y="338" text-anchor="middle" fill="rgb(0,0,0)" dominant-baseline="central">amestecare</text>
<polygon points="1486,323 1481,312 1490,312" style="fill:rgb(0,0,0)"/>
<path d="M1486,293L1486,317"  style="fill:none;stroke-width:2.16;stroke:rgb(0,0,0);" />
<path d="M1446,353L1525,353A15 15 0 0 0 1540 338L1540,338A15 15 0 0 0 1525 323L1446,323A15 15 0 0 0 1431 338L1431,338A15 15 0 0 0 1446 353Z"  style="fill:none;stroke-width:2.16;stroke:rgb(0,0,0);" />
<text x="1486" y="338" text-anchor="middle" fill="rgb(0,0,0)" dominant-baseline="central">amestecare</text>
<polygon points="1486,383 1481,372 1490,372" style="fill:rgb(0,0,0)"/>
<path d="M1486,353L1486,378"  style="fill:none;stroke-width:2.16;stroke:rgb(0,0,0);" />
<path d="M1317,414L1654,414L1654,383L1317,383Z"  style="fill:rgb(7,255,20);stroke-width:2.16;stroke:rgb(0,0,0);" />
<text x="1486" y="398" text-anchor="middle" fill="rgb(0,0,0)" dominant-baseline="central">maia - în vasul celor 4 linguri de lapte</text>
<polygon points="1486,444 1481,432 1490,432" style="fill:rgb(0,0,0)"/>
<path d="M1486,414L1486,438"  style="fill:none;stroke-width:2.16;stroke:rgb(0,0,0);" />
<path d="M1403,494L1569,494A15 15 0 0 0 1584 479L1584,459A15 15 0 0 0 1569 444L1403,444A15 15 0 0 0 1388 459L1388,479A15 15 0 0 0 1403 494Z"  style="fill:rgb(7,255,20);stroke-width:2.16;stroke:rgb(0,0,0);" />
<text x="1486" y="459" text-anchor="middle" fill="rgb(0,0,0)" dominant-baseline="central">cele 4 linguri de lapte</text>
<text x="1486" y="479" text-anchor="middle" fill="rgb(0,0,0)" dominant-baseline="central">se încălzesc un pic</text>
<polygon points="1486,524 1481,512 1490,512" style="fill:rgb(0,0,0)"/>
<path d="M1486,494L1486,518"  style="fill:none;stroke-width:2.16;stroke:rgb(0,0,0);" />
<path d="M1426,554L1545,554A15 15 0 0 0 1560 539L1560,539A15 15 0 0 0 1545 524L1426,524A15 15 0 0 0 1411 539L1411,539A15 15 0 0 0 1426 554Z"  style="fill:rgb(7,255,20);stroke-width:2.16;stroke:rgb(0,0,0);" />
<text x="1486" y="539" text-anchor="middle" fill="rgb(0,0,0)" dominant-baseline="central">se ia o linguriță</text>
<polygon points="1486,584 1481,573 1490,573" style="fill:rgb(0,0,0)"/>
<path d="M1486,554L1486,578"  style="fill:none;stroke-width:2.16;stroke:rgb(0,0,0);" />
<path d="M1343,614L1628,614A15 15 0 0 0 1643 599L1643,599A15 15 0 0 0 1628 584L1343,584A15 15 0 0 0 1328 599L1328,599A15 15 0 0 0 1343 614Z"  style="fill:rgb(7,255,20);stroke-width:2.16;stroke:rgb(0,0,0);" />
<text x="1486" y="599" text-anchor="middle" fill="rgb(0,0,0)" dominant-baseline="central">dizolvă drojdia în 4 linguri de lapte</text>
<polygon points="1486,644 1481,633 1490,633" style="fill:rgb(0,0,0)"/>
<path d="M1486,614L1486,639"  style="fill:none;stroke-width:2.16;stroke:rgb(0,0,0);" />
<path d="M1346,675L1625,675A15 15 0 0 0 1640 660L1640,659A15 15 0 0 0 1625 644L1346,644A15 15 0 0 0 1331 659L1331,660A15 15 0 0 0 1346 675Z"  style="fill:rgb(7,255,20);stroke-width:2.16;stroke:rgb(0,0,0);" />
<text x="1486" y="660" text-anchor="middle" fill="rgb(0,0,0)" dominant-baseline="central">adaugă 3 linguri făină amestecând</text>
<polygon points="1486,705 1481,693 1490,693" style="fill:rgb(0,0,0)"/>
<path d="M1486,675L1486,699"  style="fill:none;stroke-width:2.16;stroke:rgb(0,0,0);" />
<path d="M1333,735L1639,735A15 15 0 0 0 1654 720L1654,720A15 15 0 0 0 1639 705L1333,705A15 15 0 0 0 1318 720L1318,720A15 15 0 0 0 1333 735Z"  style="fill:rgb(7,255,20);stroke-width:2.16;stroke:rgb(0,0,0);" />
<text x="1486" y="720" text-anchor="middle" fill="rgb(0,0,0)" dominant-baseline="central">adaugă 1 linguriță zahăr amestecând</text>
<polygon points="1486,765 1481,753 1490,753" style="fill:rgb(0,0,0)"/>
<path d="M1486,735L1486,759"  style="fill:none;stroke-width:2.16;stroke:rgb(0,0,0);" />
<path d="M1420,795L1551,795A15 15 0 0 0 1566 780L1566,780A15 15 0 0 0 1551 765L1420,765A15 15 0 0 0 1405 780L1405,780A15 15 0 0 0 1420 795Z"  style="fill:rgb(7,255,20);stroke-width:2.16;stroke:rgb(0,0,0);" />
<text x="1486" y="780" text-anchor="middle" fill="rgb(0,0,0)" dominant-baseline="central">se lăsă la crescut</text>
<polygon points="1486,825 1481,814 1490,814" style="fill:rgb(0,0,0)"/>
<path d="M1486,795L1486,819"  style="fill:none;stroke-width:2.16;stroke:rgb(0,0,0);" />
<path d="M1452,855L1519,855A15 15 0 0 0 1534 840L1534,840A15 15 0 0 0 1519 825L1452,825A15 15 0 0 0 1437 840L1437,840A15 15 0 0 0 1452 855Z"  style="fill:rgb(7,255,20);stroke-width:2.16;stroke:rgb(0,0,0);" />
<text x="1486" y="840" text-anchor="middle" fill="rgb(0,0,0)" dominant-baseline="central">20 minute</text>
<polygon points="1611,780 1599,784 1599,776" style="fill:rgb(0,0,0)"/>
<path d="M1566,780L1605,780"  style="fill:none;stroke-width:2.16;stroke:rgb(0,0,0);" />
<path d="M1626,805L1748,805A15 15 0 0 0 1763 790L1763,770A15 15 0 0 0 1748 755L1626,755A15 15 0 0 0 1611 770L1611,790A15 15 0 0 0 1626 805Z"  style="fill:rgb(255,228,181);stroke-width:2.16;stroke:rgb(0,0,0);" />
<text x="1687" y="770" text-anchor="middle" fill="rgb(0,0,0)" dominant-baseline="central">se poate aștepta</text>
<text x="1687" y="790" text-anchor="middle" fill="rgb(0,0,0)" dominant-baseline="central">dacă este cazul</text>
<polygon points="1687,835 1682,824 1691,824" style="fill:rgb(0,0,0)"/>
<path d="M1687,805L1687,829"  style="fill:none;stroke-width:2.16;stroke:rgb(0,0,0);" />
<path d="M1627,865L1746,865A15 15 0 0 0 1761 850L1761,850A15 15 0 0 0 1746 835L1627,835A15 15 0 0 0 1612 850L1612,850A15 15 0 0 0 1627 865Z"  style="fill:rgb(211,211,211);stroke-width:2.16;stroke:rgb(0,0,0);" />
<text x="1687" y="850" text-anchor="middle" fill="rgb(0,0,0)" dominant-baseline="central">se topește untul</text>
<polygon points="1687,895 1682,884 1691,884" style="fill:rgb(0,0,0)"/>
<path d="M1687,865L1687,890"  style="fill:none;stroke-width:2.16;stroke:rgb(0,0,0);" />
<path d="M1578,926L1795,926A15 15 0 0 0 1810 911L1810,910A15 15 0 0 0 1795 895L1578,895A15 15 0 0 0 1563 910L1563,911A15 15 0 0 0 1578 926Z"  style="fill:rgb(173,216,230);stroke-width:2.16;stroke:rgb(0,0,0);" />
<text x="1687" y="911" text-anchor="middle" fill="rgb(0,0,0)" dominant-baseline="central">se încălzește puțin laptele</text>
<polygon points="1687,956 1682,944 1691,944" style="fill:rgb(0,0,0)"/>
<path d="M1687,926L1687,950"  style="fill:none;stroke-width:2.16;stroke:rgb(0,0,0);" />
<path d="M1581,986L1792,986A15 15 0 0 0 1807 971L1807,971A15 15 0 0 0 1792 956L1581,956A15 15 0 0 0 1566 971L1566,971A15 15 0 0 0 1581 986Z"  style="fill:rgb(173,216,230);stroke-width:2.16;stroke:rgb(0,0,0);" />
<text x="1687" y="971" text-anchor="middle" fill="rgb(0,0,0)" dominant-baseline="central">se disolvă zahărul în lapte</text>
<polygon points="1687,1016 1682,1004 1691,1004" style="fill:rgb(0,0,0)"/>
<path d="M1687,986L1687,1010"  style="fill:none;stroke-width:2.16;stroke:rgb(0,0,0);" />
<path d="M1615,1066L1758,1066A15 15 0 0 0 1773 1051L1773,1031A15 15 0 0 0 1758 1016L1615,1016A15 15 0 0 0 1600 1031L1600,1051A15 15 0 0 0 1615 1066Z"  style="fill:rgb(144,238,144);stroke-width:2.16;stroke:rgb(0,0,0);" />
<text x="1687" y="1031" text-anchor="middle" fill="rgb(0,0,0)" dominant-baseline="central">se ia vasul cu făina</text>
<text x="1687" y="1051" text-anchor="middle" fill="rgb(0,0,0)" dominant-baseline="central">pentru toată coca</text>
<polygon points="1600,1041 1589,1045 1589,1037" style="fill:rgb(0,0,0)"/>
<path d="M1486,855L1486,1041L1594,1041"  style="fill:none;stroke-width:2.16;stroke-linejoin:round;stroke:rgb(0,0,0);" />
<polygon points="1687,1096 1682,1085 1691,1085" style="fill:rgb(0,0,0)"/>
<path d="M1687,1066L1687,1091"  style="fill:none;stroke-width:2.16;stroke:rgb(0,0,0);" />
<path d="M1604,1127L1770,1127A15 15 0 0 0 1785 1112L1785,1111A15 15 0 0 0 1770 1096L1604,1096A15 15 0 0 0 1589 1111L1589,1112A15 15 0 0 0 1604 1127Z"  style="fill:rgb(144,238,144);stroke-width:2.16;stroke:rgb(0,0,0);" />
<text x="1687" y="1111" text-anchor="middle" fill="rgb(0,0,0)" dominant-baseline="central">făina este deja în vas</text>
<polygon points="1687,1157 1682,1145 1691,1145" style="fill:rgb(0,0,0)"/>
<path d="M1687,1127L1687,1151"  style="fill:none;stroke-width:2.16;stroke:rgb(0,0,0);" />
<path d="M1619,1187L1754,1187A15 15 0 0 0 1769 1172L1769,1172A15 15 0 0 0 1754 1157L1619,1157A15 15 0 0 0 1604 1172L1604,1172A15 15 0 0 0 1619 1187Z"  style="fill:rgb(144,238,144);stroke-width:2.16;stroke:rgb(0,0,0);" />
<text x="1687" y="1172" text-anchor="middle" fill="rgb(0,0,0)" dominant-baseline="central">se adaugă maiaua</text>
<polygon points="1687,1217 1682,1205 1691,1205" style="fill:rgb(0,0,0)"/>
<path d="M1687,1187L1687,1211"  style="fill:none;stroke-width:2.16;stroke:rgb(0,0,0);" />
<path d="M1592,1267L1782,1267A15 15 0 0 0 1797 1252L1797,1232A15 15 0 0 0 1782 1217L1592,1217A15 15 0 0 0 1577 1232L1577,1252A15 15 0 0 0 1592 1267Z"  style="fill:rgb(144,238,144);stroke-width:2.16;stroke:rgb(0,0,0);" />
<text x="1687" y="1232" text-anchor="middle" fill="rgb(0,0,0)" dominant-baseline="central">se adaugă gălbenusurile</text>
<text x="1687" y="1252" text-anchor="middle" fill="rgb(0,0,0)" dominant-baseline="central">cu coaja de lămâie</text>
<polygon points="1687,1297 1682,1286 1691,1286" style="fill:rgb(0,0,0)"/>
<path d="M1687,1267L1687,1291"  style="fill:none;stroke-width:2.16;stroke:rgb(0,0,0);" />
<path d="M1574,1327L1800,1327A15 15 0 0 0 1815 1312L1815,1312A15 15 0 0 0 1800 1297L1574,1297A15 15 0 0 0 1559 1312L1559,1312A15 15 0 0 0 1574 1327Z"  style="fill:rgb(144,238,144);stroke-width:2.16;stroke:rgb(0,0,0);" />
<text x="1687" y="1312" text-anchor="middle" fill="rgb(0,0,0)" dominant-baseline="central">se adaugă laptele cu zahărul</text>
<polygon points="1687,1357 1682,1346 1691,1346" style="fill:rgb(0,0,0)"/>
<path d="M1687,1327L1687,1352"  style="fill:none;stroke-width:2.16;stroke:rgb(0,0,0);" />
<path d="M1578,1388L1795,1388A15 15 0 0 0 1810 1373L1810,1372A15 15 0 0 0 1795 1357L1578,1357A15 15 0 0 0 1563 1372L1563,1373A15 15 0 0 0 1578 1388Z"  style="fill:rgb(144,238,144);stroke-width:2.16;stroke:rgb(0,0,0);" />
<text x="1687" y="1373" text-anchor="middle" fill="rgb(0,0,0)" dominant-baseline="central">se adaugă zahărul vanilinat</text>
<polygon points="1687,1418 1682,1406 1691,1406" style="fill:rgb(0,0,0)"/>
<path d="M1687,1388L1687,1412"  style="fill:none;stroke-width:2.16;stroke:rgb(0,0,0);" />
<path d="M1627,1448L1747,1448A15 15 0 0 0 1762 1433L1762,1433A15 15 0 0 0 1747 1418L1627,1418A15 15 0 0 0 1612 1433L1612,1433A15 15 0 0 0 1627 1448Z"  style="fill:rgb(144,238,144);stroke-width:2.16;stroke:rgb(0,0,0);" />
<text x="1687" y="1433" text-anchor="middle" fill="rgb(0,0,0)" dominant-baseline="central">se adaugă sarea</text>
<polygon points="1687,1478 1682,1466 1691,1466" style="fill:rgb(0,0,0)"/>
<path d="M1687,1448L1687,1472"  style="fill:none;stroke-width:2.16;stroke:rgb(0,0,0);" />
<path d="M1580,1508L1794,1508A15 15 0 0 0 1809 1493L1809,1493A15 15 0 0 0 1794 1478L1580,1478A15 15 0 0 0 1565 1493L1565,1493A15 15 0 0 0 1580 1508Z"  style="fill:rgb(144,238,144);stroke-width:2.16;stroke:rgb(0,0,0);" />
<text x="1687" y="1493" text-anchor="middle" fill="rgb(0,0,0)" dominant-baseline="central">se adaugă 2 esențe de rom</text>
<polygon points="1687,1538 1682,1527 1691,1527" style="fill:rgb(0,0,0)"/>
<path d="M1687,1508L1687,1532"  style="fill:none;stroke-width:2.16;stroke:rgb(0,0,0);" />
<path d="M1596,1589L1778,1589A15 15 0 0 0 1793 1574L1793,1553A15 15 0 0 0 1778 1538L1596,1538A15 15 0 0 0 1581 1553L1581,1574A15 15 0 0 0 1596 1589Z"  style="fill:rgb(144,238,144);stroke-width:2.16;stroke:rgb(0,0,0);" />
<text x="1687" y="1553" text-anchor="middle" fill="rgb(0,0,0)" dominant-baseline="central">se amestecă</text>
<text x="1687" y="1573" text-anchor="middle" fill="rgb(0,0,0)" dominant-baseline="central">să curpindă toată făina</text>
<polygon points="1687,1619 1682,1607 1691,1607" style="fill:rgb(0,0,0)"/>
<path d="M1687,1589L1687,1613"  style="fill:none;stroke-width:2.16;stroke:rgb(0,0,0);" />
<path d="M1561,1669L1813,1669A15 15 0 0 0 1828 1654L1828,1634A15 15 0 0 0 1813 1619L1561,1619A15 15 0 0 0 1546 1634L1546,1654A15 15 0 0 0 1561 1669Z"  style="fill:rgb(144,238,144);stroke-width:2.16;stroke:rgb(0,0,0);" />
<text x="1687" y="1634" text-anchor="middle" fill="rgb(0,0,0)" dominant-baseline="central">se frământă 30 minute</text>
<text x="1687" y="1654" text-anchor="middle" fill="rgb(0,0,0)" dominant-baseline="central">se adaugă câte o lingură de unt</text>
<polygon points="1687,1699 1682,1687 1691,1687" style="fill:rgb(0,0,0)"/>
<path d="M1687,1669L1687,1693"  style="fill:none;stroke-width:2.16;stroke:rgb(0,0,0);" />
<path d="M1544,1749L1830,1749A15 15 0 0 0 1845 1734L1845,1714A15 15 0 0 0 1830 1699L1544,1699A15 15 0 0 0 1529 1714L1529,1734A15 15 0 0 0 1544 1749Z"  style="fill:rgb(144,238,144);stroke-width:2.16;stroke:rgb(0,0,0);" />
<text x="1687" y="1714" text-anchor="middle" fill="rgb(0,0,0)" dominant-baseline="central">se presară un pic de făina deasupra</text>
<text x="1687" y="1734" text-anchor="middle" fill="rgb(0,0,0)" dominant-baseline="central">se acoperă cu un prosop</text>
<polygon points="1687,1779 1682,1768 1691,1768" style="fill:rgb(0,0,0)"/>
<path d="M1687,1749L1687,1774"  style="fill:none;stroke-width:2.16;stroke:rgb(0,0,0);" />
<path d="M1634,1810L1739,1810A15 15 0 0 0 1754 1795L1754,1794A15 15 0 0 0 1739 1779L1634,1779A15 15 0 0 0 1619 1794L1619,1795A15 15 0 0 0 1634 1810Z"  style="fill:rgb(144,238,144);stroke-width:2.16;stroke:rgb(0,0,0);" />
<text x="1687" y="1794" text-anchor="middle" fill="rgb(0,0,0)" dominant-baseline="central">se dă la dospit</text>
<polygon points="1687,1840 1682,1828 1691,1828" style="fill:rgb(0,0,0)"/>
<path d="M1687,1810L1687,1834"  style="fill:none;stroke-width:2.16;stroke:rgb(0,0,0);" />
<path d="M1605,1870L1769,1870A15 15 0 0 0 1784 1855L1784,1855A15 15 0 0 0 1769 1840L1605,1840A15 15 0 0 0 1590 1855L1590,1855A15 15 0 0 0 1605 1870Z"  style="fill:rgb(144,238,144);stroke-width:2.16;stroke:rgb(0,0,0);" />
<text x="1687" y="1855" text-anchor="middle" fill="rgb(0,0,0)" dominant-baseline="central">60 minute în loc cald</text>
<polygon points="1844,1794 1833,1799 1833,1790" style="fill:rgb(0,0,0)"/>
<path d="M1754,1794L1839,1794"  style="fill:none;stroke-width:2.16;stroke:rgb(0,0,0);" />
<path d="M1859,1820L1982,1820A15 15 0 0 0 1997 1805L1997,1784A15 15 0 0 0 1982 1769L1859,1769A15 15 0 0 0 1844 1784L1844,1805A15 15 0 0 0 1859 1820Z"  style="fill:rgb(255,228,181);stroke-width:2.16;stroke:rgb(0,0,0);" />
<text x="1920" y="1784" text-anchor="middle" fill="rgb(0,0,0)" dominant-baseline="central">se poate aștepta</text>
<text x="1920" y="1805" text-anchor="middle" fill="rgb(0,0,0)" dominant-baseline="central">dacă este cazul</text>
<polygon points="1920,1850 1916,1838 1925,1838" style="fill:rgb(0,0,0)"/>
<path d="M1920,1820L1920,1844"  style="fill:none;stroke-width:2.16;stroke:rgb(0,0,0);" />
<path d="M1814,1900L2027,1900A15 15 0 0 0 2042 1885L2042,1865A15 15 0 0 0 2027 1850L1814,1850A15 15 0 0 0 1799 1865L1799,1885A15 15 0 0 0 1814 1900Z"  style="fill:rgb(255,255,224);stroke-width:2.16;stroke:rgb(0,0,0);" />
<text x="1920" y="1865" text-anchor="middle" fill="rgb(0,0,0)" dominant-baseline="central">nuca măcinată</text>
<text x="1920" y="1885" text-anchor="middle" fill="rgb(0,0,0)" dominant-baseline="central">într-un castron mare 20cm</text>
<polygon points="1920,1930 1916,1919 1925,1919" style="fill:rgb(0,0,0)"/>
<path d="M1920,1900L1920,1924"  style="fill:none;stroke-width:2.16;stroke:rgb(0,0,0);" />
<path d="M1874,1980L1967,1980A15 15 0 0 0 1982 1965L1982,1945A15 15 0 0 0 1967 1930L1874,1930A15 15 0 0 0 1859 1945L1859,1965A15 15 0 0 0 1874 1980Z"  style="fill:rgb(255,255,224);stroke-width:2.16;stroke:rgb(0,0,0);" />
<text x="1920" y="1945" text-anchor="middle" fill="rgb(0,0,0)" dominant-baseline="central">adaugă lapte</text>
<text x="1920" y="1965" text-anchor="middle" fill="rgb(0,0,0)" dominant-baseline="central">4 linguri</text>
<polygon points="1920,2010 1916,1999 1925,1999" style="fill:rgb(0,0,0)"/>
<path d="M1920,1980L1920,2005"  style="fill:none;stroke-width:2.16;stroke:rgb(0,0,0);" />
<path d="M1872,2061L1969,2061A15 15 0 0 0 1984 2046L1984,2025A15 15 0 0 0 1969 2010L1872,2010A15 15 0 0 0 1857 2025L1857,2046A15 15 0 0 0 1872 2061Z"  style="fill:rgb(255,255,224);stroke-width:2.16;stroke:rgb(0,0,0);" />
<text x="1920" y="2026" text-anchor="middle" fill="rgb(0,0,0)" dominant-baseline="central">adaugă zahar</text>
<text x="1920" y="2046" text-anchor="middle" fill="rgb(0,0,0)" dominant-baseline="central">5 linguri</text>
<polygon points="1920,2091 1916,2079 1925,2079" style="fill:rgb(0,0,0)"/>
<path d="M1920,2061L1920,2085"  style="fill:none;stroke-width:2.16;stroke:rgb(0,0,0);" />
<path d="M1878,2141L1963,2141A15 15 0 0 0 1978 2126L1978,2106A15 15 0 0 0 1963 2091L1878,2091A15 15 0 0 0 1863 2106L1863,2126A15 15 0 0 0 1878 2141Z"  style="fill:rgb(255,255,224);stroke-width:2.16;stroke:rgb(0,0,0);" />
<text x="1920" y="2106" text-anchor="middle" fill="rgb(0,0,0)" dominant-baseline="central">adaugă rom</text>
<text x="1920" y="2126" text-anchor="middle" fill="rgb(0,0,0)" dominant-baseline="central">1 fiolă (10g)</text>
<polygon points="1920,2171 1916,2160 1925,2160" style="fill:rgb(0,0,0)"/>
<path d="M1920,2141L1920,2166"  style="fill:none;stroke-width:2.16;stroke:rgb(0,0,0);" />
<path d="M1866,2222L1974,2222A15 15 0 0 0 1989 2207L1989,2186A15 15 0 0 0 1974 2171L1866,2171A15 15 0 0 0 1851 2186L1851,2207A15 15 0 0 0 1866 2222Z"  style="fill:rgb(255,255,224);stroke-width:2.16;stroke:rgb(0,0,0);" />
<text x="1920" y="2186" text-anchor="middle" fill="rgb(0,0,0)" dominant-baseline="central">adaugă cacaoa</text>
<text x="1920" y="2207" text-anchor="middle" fill="rgb(0,0,0)" dominant-baseline="central">1 lingură</text>
<polygon points="1920,2252 1916,2240 1925,2240" style="fill:rgb(0,0,0)"/>
<path d="M1920,2222L1920,2246"  style="fill:none;stroke-width:2.16;stroke:rgb(0,0,0);" />
<path d="M1758,2282L2083,2282A15 15 0 0 0 2098 2267L2098,2267A15 15 0 0 0 2083 2252L1758,2252A15 15 0 0 0 1743 2267L1743,2267A15 15 0 0 0 1758 2282Z"  style="fill:rgb(189,183,107);stroke-width:2.16;stroke:rgb(0,0,0);" />
<text x="1920" y="2267" text-anchor="middle" fill="rgb(0,0,0)" dominant-baseline="central">se mixează 3 albușuri cu zahăr vanilinat</text>
<polygon points="1920,2312 1916,2300 1925,2300" style="fill:rgb(0,0,0)"/>
<path d="M1920,2282L1920,2306"  style="fill:none;stroke-width:2.16;stroke:rgb(0,0,0);" />
<path d="M1803,2342L2037,2342A15 15 0 0 0 2052 2327L2052,2327A15 15 0 0 0 2037 2312L1803,2312A15 15 0 0 0 1788 2327L1788,2327A15 15 0 0 0 1803 2342Z"  style="fill:rgb(255,255,224);stroke-width:2.16;stroke:rgb(0,0,0);" />
<text x="1920" y="2327" text-anchor="middle" fill="rgb(0,0,0)" dominant-baseline="central">se amestecă albușuri cu nuca</text>
<polygon points="1920,2372 1916,2361 1925,2361" style="fill:rgb(0,0,0)"/>
<path d="M1920,2342L1920,2366"  style="fill:none;stroke-width:2.16;stroke:rgb(0,0,0);" />
<path d="M1845,2402L1996,2402A15 15 0 0 0 2011 2387L2011,2387A15 15 0 0 0 1996 2372L1845,2372A15 15 0 0 0 1830 2387L1830,2387A15 15 0 0 0 1845 2402Z"  style="fill:rgb(255,165,0);stroke-width:2.16;stroke:rgb(0,0,0);" />
<text x="1920" y="2387" text-anchor="middle" fill="rgb(0,0,0)" dominant-baseline="central">se ponește cuptorul</text>
<polygon points="1920,2432 1916,2421 1925,2421" style="fill:rgb(0,0,0)"/>
<path d="M1920,2402L1920,2427"  style="fill:none;stroke-width:2.16;stroke:rgb(0,0,0);" />
<path d="M1849,2483L1992,2483A15 15 0 0 0 2007 2468L2007,2447A15 15 0 0 0 1992 2432L1849,2432A15 15 0 0 0 1834 2447L1834,2468A15 15 0 0 0 1849 2483Z"  style="fill:rgb(255,165,0);stroke-width:2.16;stroke:rgb(0,0,0);" />
<text x="1920" y="2448" text-anchor="middle" fill="rgb(0,0,0)" dominant-baseline="central">se pregătesc 2 tăvi</text>
<text x="1920" y="2468" text-anchor="middle" fill="rgb(0,0,0)" dominant-baseline="central">cu hârtie de copt</text>
<polygon points="1920,2513 1916,2501 1925,2501" style="fill:rgb(0,0,0)"/>
<path d="M1920,2483L1920,2507"  style="fill:none;stroke-width:2.16;stroke:rgb(0,0,0);" />
<path d="M1837,2563L2004,2563A15 15 0 0 0 2019 2548L2019,2528A15 15 0 0 0 2004 2513L1837,2513A15 15 0 0 0 1822 2528L1822,2548A15 15 0 0 0 1837 2563Z"  style="fill:rgb(255,165,0);stroke-width:2.16;stroke:rgb(0,0,0);" />
<text x="1920" y="2528" text-anchor="middle" fill="rgb(0,0,0)" dominant-baseline="central">se aduc tăvile</text>
<text x="1920" y="2548" text-anchor="middle" fill="rgb(0,0,0)" dominant-baseline="central">aproape de suprafață</text>
<polygon points="1920,2593 1916,2582 1925,2582" style="fill:rgb(0,0,0)"/>
<path d="M1920,2563L1920,2587"  style="fill:none;stroke-width:2.16;stroke:rgb(0,0,0);" />
<path d="M1840,2684L2001,2684A15 15 0 0 0 2016 2669L2016,2608A15 15 0 0 0 2001 2593L1840,2593A15 15 0 0 0 1825 2608L1825,2669A15 15 0 0 0 1840 2684Z"  style="fill:rgb(0,191,255);stroke-width:2.16;stroke:rgb(0,0,0);" />
<text x="1920" y="2608" text-anchor="middle" fill="rgb(0,0,0)" dominant-baseline="central">se unge suprafața</text>
<text x="1920" y="2628" text-anchor="middle" fill="rgb(0,0,0)" dominant-baseline="central">(mușama)</text>
<text x="1920" y="2649" text-anchor="middle" fill="rgb(0,0,0)" dominant-baseline="central">unde se fac cozonacii</text>
<text x="1920" y="2669" text-anchor="middle" fill="rgb(0,0,0)" dominant-baseline="central">cu puțin ulei</text>
<polygon points="1920,2714 1916,2702 1925,2702" style="fill:rgb(0,0,0)"/>
<path d="M1920,2684L1920,2708"  style="fill:none;stroke-width:2.16;stroke:rgb(0,0,0);" />
<path d="M1792,2784L2049,2784A15 15 0 0 0 2064 2769L2064,2729A15 15 0 0 0 2049 2714L1792,2714A15 15 0 0 0 1777 2729L1777,2769A15 15 0 0 0 1792 2784Z"  style="fill:none;stroke-width:2.16;stroke:rgb(0,0,0);" />
<text x="1920" y="2729" text-anchor="middle" fill="rgb(0,0,0)" dominant-baseline="central">se îmarte coca în două</text>
<text x="1920" y="2749" text-anchor="middle" fill="rgb(0,0,0)" dominant-baseline="central">jumătate pe suprafața de întins</text>
<text x="1920" y="2769" text-anchor="middle" fill="rgb(0,0,0)" dominant-baseline="central">jumătate înapoi în vas</text>
<polygon points="1777,2749 1765,2754 1765,2745" style="fill:rgb(0,0,0)"/>
<path d="M1687,1870L1687,2749L1771,2749"  style="fill:none;stroke-width:2.16;stroke-linejoin:round;stroke:rgb(0,0,0);" />
<polygon points="1920,2814 1916,2803 1925,2803" style="fill:rgb(0,0,0)"/>
<path d="M1920,2784L1920,2809"  style="fill:none;stroke-width:2.16;stroke:rgb(0,0,0);" />
<path d="M1794,2865L2047,2865A15 15 0 0 0 2062 2850L2062,2829A15 15 0 0 0 2047 2814L1794,2814A15 15 0 0 0 1779 2829L1779,2850A15 15 0 0 0 1794 2865Z"  style="fill:rgb(0,191,255);stroke-width:2.16;stroke:rgb(0,0,0);" />
<text x="1920" y="2830" text-anchor="middle" fill="rgb(0,0,0)" dominant-baseline="central">se îmarte din nou coca în două</text>
<text x="1920" y="2850" text-anchor="middle" fill="rgb(0,0,0)" dominant-baseline="central">pe suprafața de întins</text>
<polygon points="1920,2895 1916,2883 1925,2883" style="fill:rgb(0,0,0)"/>
<path d="M1920,2865L1920,2889"  style="fill:none;stroke-width:2.16;stroke:rgb(0,0,0);" />
<path d="M1810,2965L2031,2965A15 15 0 0 0 2046 2950L2046,2910A15 15 0 0 0 2031 2895L1810,2895A15 15 0 0 0 1795 2910L1795,2950A15 15 0 0 0 1810 2965Z"  style="fill:rgb(0,191,255);stroke-width:2.16;stroke:rgb(0,0,0);" />
<text x="1920" y="2910" text-anchor="middle" fill="rgb(0,0,0)" dominant-baseline="central">se întinde coca dreptunghic</text>
<text x="1920" y="2930" text-anchor="middle" fill="rgb(0,0,0)" dominant-baseline="central">cât mai mult</text>
<text x="1920" y="2950" text-anchor="middle" fill="rgb(0,0,0)" dominant-baseline="central">5mm cu sticlă</text>
<polygon points="1920,2995 1916,2984 1925,2984" style="fill:rgb(0,0,0)"/>
<path d="M1920,2965L1920,2990"  style="fill:none;stroke-width:2.16;stroke:rgb(0,0,0);" />
<path d="M1808,3046L2033,3046A15 15 0 0 0 2048 3031L2048,3010A15 15 0 0 0 2033 2995L1808,2995A15 15 0 0 0 1793 3010L1793,3031A15 15 0 0 0 1808 3046Z"  style="fill:rgb(0,191,255);stroke-width:2.16;stroke:rgb(0,0,0);" />
<text x="1920" y="3011" text-anchor="middle" fill="rgb(0,0,0)" dominant-baseline="central">se întinde cremă peste cocă</text>
<text x="1920" y="3031" text-anchor="middle" fill="rgb(0,0,0)" dominant-baseline="central">1/4 din cremă</text>
<polygon points="1920,3076 1916,3064 1925,3064" style="fill:rgb(0,0,0)"/>
<path d="M1920,3046L1920,3070"  style="fill:none;stroke-width:2.16;stroke:rgb(0,0,0);" />
<path d="M1819,3126L2022,3126A15 15 0 0 0 2037 3111L2037,3091A15 15 0 0 0 2022 3076L1819,3076A15 15 0 0 0 1804 3091L1804,3111A15 15 0 0 0 1819 3126Z"  style="fill:rgb(0,191,255);stroke-width:2.16;stroke:rgb(0,0,0);" />
<text x="1920" y="3091" text-anchor="middle" fill="rgb(0,0,0)" dominant-baseline="central">se răsucește felia de cocă</text>
<text x="1920" y="3111" text-anchor="middle" fill="rgb(0,0,0)" dominant-baseline="central">se obține un sul</text>
<polygon points="1920,3156 1916,3145 1925,3145" style="fill:rgb(0,0,0)"/>
<path d="M1920,3126L1920,3150"  style="fill:none;stroke-width:2.16;stroke:rgb(0,0,0);" />
<path d="M1807,3207L2034,3207A15 15 0 0 0 2049 3192L2049,3171A15 15 0 0 0 2034 3156L1807,3156A15 15 0 0 0 1792 3171L1792,3192A15 15 0 0 0 1807 3207Z"  style="fill:rgb(0,191,255);stroke-width:2.16;stroke:rgb(0,0,0);" />
<text x="1920" y="3171" text-anchor="middle" fill="rgb(0,0,0)" dominant-baseline="central">se face la fel</text>
<text x="1920" y="3192" text-anchor="middle" fill="rgb(0,0,0)" dominant-baseline="central">cu cealaltă jumătate de cocă</text>
<polygon points="1920,3237 1916,3225 1925,3225" style="fill:rgb(0,0,0)"/>
<path d="M1920,3207L1920,3231"  style="fill:none;stroke-width:2.16;stroke:rgb(0,0,0);" />
<path d="M1812,3287L2029,3287A15 15 0 0 0 2044 3272L2044,3252A15 15 0 0 0 2029 3237L1812,3237A15 15 0 0 0 1797 3252L1797,3272A15 15 0 0 0 1812 3287Z"  style="fill:rgb(0,191,255);stroke-width:2.16;stroke:rgb(0,0,0);" />
<text x="1920" y="3252" text-anchor="middle" fill="rgb(0,0,0)" dominant-baseline="central">se prind sulurile la un cap</text>
<text x="1920" y="3272" text-anchor="middle" fill="rgb(0,0,0)" dominant-baseline="central">se încalecă una pe cealaltă</text>
<polygon points="1920,3317 1916,3306 1925,3306" style="fill:rgb(0,0,0)"/>
<path d="M1920,3287L1920,3311"  style="fill:none;stroke-width:2.16;stroke:rgb(0,0,0);" />
<path d="M1862,3347L1979,3347A15 15 0 0 0 1994 3332L1994,3332A15 15 0 0 0 1979 3317L1862,3317A15 15 0 0 0 1847 3332L1847,3332A15 15 0 0 0 1862 3347Z"  style="fill:rgb(255,165,0);stroke-width:2.16;stroke:rgb(0,0,0);" />
<text x="1920" y="3332" text-anchor="middle" fill="rgb(0,0,0)" dominant-baseline="central">se pune în tavă</text>
<polygon points="1920,3377 1916,3366 1925,3366" style="fill:rgb(0,0,0)"/>
<path d="M1920,3347L1920,3372"  style="fill:none;stroke-width:2.16;stroke:rgb(0,0,0);" />
<path d="M1787,3408L2054,3408A15 15 0 0 0 2069 3393L2069,3392A15 15 0 0 0 2054 3377L1787,3377A15 15 0 0 0 1772 3392L1772,3393A15 15 0 0 0 1787 3408Z"  style="fill:rgb(255,165,0);stroke-width:2.16;stroke:rgb(0,0,0);" />
<text x="1920" y="3392" text-anchor="middle" fill="rgb(0,0,0)" dominant-baseline="central">se unge cu gălbenuș pe deasupra</text>
<polygon points="1920,3438 1916,3426 1925,3426" style="fill:rgb(0,0,0)"/>
<path d="M1920,3408L1920,3432"  style="fill:none;stroke-width:2.16;stroke:rgb(0,0,0);" />
<path d="M1825,3488L2016,3488A15 15 0 0 0 2031 3473L2031,3453A15 15 0 0 0 2016 3438L1825,3438A15 15 0 0 0 1810 3453L1810,3473A15 15 0 0 0 1825 3488Z"  style="fill:rgb(0,191,255);stroke-width:2.16;stroke:rgb(0,0,0);" />
<text x="1920" y="3453" text-anchor="middle" fill="rgb(0,0,0)" dominant-baseline="central">se repetă pentru cealată</text>
<text x="1920" y="3473" text-anchor="middle" fill="rgb(0,0,0)" dominant-baseline="central">jumătate de cocă</text>
<polygon points="2062,2840 2074,2835 2074,2844" style="fill:rgb(0,0,0)"/>
<path d="M2031,3463L2091,3463L2091,2840L2068,2840"  style="fill:none;stroke-width:2.16;stroke-linejoin:round;stroke:rgb(0,0,0);" />
<polygon points="1920,3518 1916,3506 1925,3506" style="fill:rgb(0,0,0)"/>
<path d="M1920,3488L1920,3512"  style="fill:none;stroke-width:2.16;stroke:rgb(0,0,0);" />
<path d="M1855,3568L1986,3568A15 15 0 0 0 2001 3553L2001,3533A15 15 0 0 0 1986 3518L1855,3518A15 15 0 0 0 1840 3533L1840,3553A15 15 0 0 0 1855 3568Z"  style="fill:rgb(255,165,0);stroke-width:2.16;stroke:rgb(0,0,0);" />
<text x="1920" y="3533" text-anchor="middle" fill="rgb(0,0,0)" dominant-baseline="central">se lasă 10 minute</text>
<text x="1920" y="3553" text-anchor="middle" fill="rgb(0,0,0)" dominant-baseline="central">să se așeze</text>
<polygon points="1920,3598 1916,3587 1925,3587" style="fill:rgb(0,0,0)"/>
<path d="M1920,3568L1920,3593"  style="fill:none;stroke-width:2.16;stroke:rgb(0,0,0);" />
<path d="M1856,3629L1985,3629A15 15 0 0 0 2000 3614L2000,3613A15 15 0 0 0 1985 3598L1856,3598A15 15 0 0 0 1841 3613L1841,3614A15 15 0 0 0 1856 3629Z"  style="fill:rgb(255,165,0);stroke-width:2.16;stroke:rgb(0,0,0);" />
<text x="1920" y="3613" text-anchor="middle" fill="rgb(0,0,0)" dominant-baseline="central">se bagă la cuptor</text>
<polygon points="1920,3659 1916,3647 1925,3647" style="fill:rgb(0,0,0)"/>
<path d="M1920,3629L1920,3653"  style="fill:none;stroke-width:2.16;stroke:rgb(0,0,0);" />
<path d="M1822,3709L2019,3709A15 15 0 0 0 2034 3694L2034,3674A15 15 0 0 0 2019 3659L1822,3659A15 15 0 0 0 1807 3674L1807,3694A15 15 0 0 0 1822 3709Z"  style="fill:rgb(255,165,0);stroke-width:2.16;stroke:rgb(0,0,0);" />
<text x="1920" y="3674" text-anchor="middle" fill="rgb(0,0,0)" dominant-baseline="central">temperatură ridicată 180</text>
<text x="1920" y="3694" text-anchor="middle" fill="rgb(0,0,0)" dominant-baseline="central">20 minute</text>
<polygon points="1920,3739 1916,3727 1925,3727" style="fill:rgb(0,0,0)"/>
<path d="M1920,3709L1920,3733"  style="fill:none;stroke-width:2.16;stroke:rgb(0,0,0);" />
<path d="M1833,3789L2008,3789A15 15 0 0 0 2023 3774L2023,3754A15 15 0 0 0 2008 3739L1833,3739A15 15 0 0 0 1818 3754L1818,3774A15 15 0 0 0 1833 3789Z"  style="fill:rgb(255,165,0);stroke-width:2.16;stroke:rgb(0,0,0);" />
<text x="1920" y="3754" text-anchor="middle" fill="rgb(0,0,0)" dominant-baseline="central">temperatură joasă 160</text>
<text x="1920" y="3774" text-anchor="middle" fill="rgb(0,0,0)" dominant-baseline="central">40 minute</text>
<polygon points="1920,3819 1916,3808 1925,3808" style="fill:rgb(0,0,0)"/>
<path d="M1920,3789L1920,3814"  style="fill:none;stroke-width:2.16;stroke:rgb(0,0,0);" />
<path d="M1868,3870L1973,3870A15 15 0 0 0 1988 3855L1988,3834A15 15 0 0 0 1973 3819L1868,3819A15 15 0 0 0 1853 3834L1853,3855A15 15 0 0 0 1868 3870Z"  style="fill:rgb(255,165,0);stroke-width:2.16;stroke:rgb(0,0,0);" />
<text x="1920" y="3834" text-anchor="middle" fill="rgb(0,0,0)" dominant-baseline="central">cuptor deschis</text>
<text x="1920" y="3855" text-anchor="middle" fill="rgb(0,0,0)" dominant-baseline="central">10 minute</text>
<polygon points="1920,3900 1916,3888 1925,3888" style="fill:rgb(0,0,0)"/>
<path d="M1920,3870L1920,3894"  style="fill:none;stroke-width:2.16;stroke:rgb(0,0,0);" />
<path d="M1858,3950L1983,3950A15 15 0 0 0 1998 3935L1998,3915A15 15 0 0 0 1983 3900L1858,3900A15 15 0 0 0 1843 3915L1843,3935A15 15 0 0 0 1858 3950Z"  style="fill:none;stroke-width:2.16;stroke:rgb(0,0,0);" />
<text x="1920" y="3915" text-anchor="middle" fill="rgb(0,0,0)" dominant-baseline="central">acoperire prosop</text>
<text x="1920" y="3935" text-anchor="middle" fill="rgb(0,0,0)" dominant-baseline="central">gata</text>
</svg>