<svg xmlns='http://www.w3.org/2000/svg' class="pikchr" viewBox="0 0 2100.94 3892.56">
<path d="M2,32L237,32L237,2L2,2Z"  style="fill:none;stroke-width:2.16;stroke:rgb(0,0,0);" />
<text x="119" y="17" text-anchor="middle" fill="rgb(0,0,0)" dominant-baseline="central">2 Cozonaci pufoși cu nucă</text>
<polygon points="309,17 297,21 297,12" style="fill:rgb(0,0,0)"/>
<path d="M237,17L303,17"  style="fill:none;stroke-width:2.16;stroke:rgb(0,0,0);" />
<path d="M309,32L485,32L485,2L309,2Z"  style="fill:none;stroke-width:2.16;stroke:rgb(0,0,0);" />
<text x="397" y="17" text-anchor="middle" fill="rgb(0,0,0)" dominant-baseline="central">Toate ingredientele</text>
<polygon points="517,104 505,108 505,100" style="fill:rgb(0,0,0)"/>
<path d="M397,32L397,104L511,104"  style="fill:none;stroke-width:2.16;stroke-linejoin:round;stroke:rgb(0,0,0);" />
<path d="M517,119L572,119L572,89L517,89Z"  style="fill:none;stroke-width:2.16;stroke:rgb(0,0,0);" />
<text x="544" y="104" text-anchor="middle" fill="rgb(0,0,0)" dominant-baseline="central">Cocă</text>
<path d="M544,119L544,134"  style="fill:none;stroke-width:2.16;stroke:rgb(0,0,0);" />
<path d="M466,164L623,164A15 15 0 0 0 638 149L638,149A15 15 0 0 0 623 134L466,134A15 15 0 0 0 451 149L451,149A15 15 0 0 0 466 164Z"  style="fill:rgb(255,193,7);stroke-width:2.16;stroke:rgb(0,0,0);" />
<text x="544" y="149" text-anchor="middle" fill="rgb(0,0,0)" dominant-baseline="central">făină 1000g (+200g)</text>
<path d="M638,149L710,149"  style="fill:none;stroke-width:2.16;stroke:rgb(0,0,0);" />
<path d="M710,174L866,174L866,124L710,124Z"  style="fill:rgb(255,193,7);stroke-width:2.16;stroke:rgb(0,0,0);" />
<text x="788" y="139" text-anchor="middle" fill="rgb(0,0,0)" dominant-baseline="central">într-un vas mare</text>
<text x="788" y="159" text-anchor="middle" fill="rgb(0,0,0)" dominant-baseline="central">diametru 40 cm</text>
<path d="M544,164L544,194"  style="fill:none;stroke-width:2.16;stroke:rgb(0,0,0);" />
<path d="M423,225L666,225A15 15 0 0 0 681 210L681,209A15 15 0 0 0 666 194L423,194A15 15 0 0 0 408 209L408,210A15 15 0 0 0 423 225Z"  style="fill:rgb(173,216,230);stroke-width:2.16;stroke:rgb(0,0,0);" />
<text x="544" y="209" text-anchor="middle" fill="rgb(0,0,0)" dominant-baseline="central">lapte 500g [+40g pentru nucă]</text>
<path d="M681,209L696,209"  style="fill:none;stroke-width:2.16;stroke:rgb(0,0,0);" />
<path d="M696,235L870,235L870,184L696,184Z"  style="fill:rgb(173,216,230);stroke-width:2.16;stroke:rgb(0,0,0);" />
<text x="783" y="199" text-anchor="middle" fill="rgb(0,0,0)" dominant-baseline="central">într-un ibric</text>
<text x="783" y="219" text-anchor="middle" fill="rgb(0,0,0)" dominant-baseline="central">pentru a fi încălzit</text>
<path d="M544,225L544,255"  style="fill:none;stroke-width:2.16;stroke:rgb(0,0,0);" />
<path d="M494,285L595,285A15 15 0 0 0 610 270L610,270A15 15 0 0 0 595 255L494,255A15 15 0 0 0 479 270L479,270A15 15 0 0 0 494 285Z"  style="fill:rgb(7,255,20);stroke-width:2.16;stroke:rgb(0,0,0);" />
<text x="544" y="270" text-anchor="middle" fill="rgb(0,0,0)" dominant-baseline="central">lapte 4 linguri</text>
<path d="M610,270L625,270"  style="fill:none;stroke-width:2.16;stroke:rgb(0,0,0);" />
<path d="M625,295L825,295L825,244L625,244Z"  style="fill:rgb(7,255,20);stroke-width:2.16;stroke:rgb(0,0,0);" />
<text x="725" y="260" text-anchor="middle" fill="rgb(0,0,0)" dominant-baseline="central">într-un vas conic</text>
<text x="725" y="280" text-anchor="middle" fill="rgb(0,0,0)" dominant-baseline="central">diametru 10 cm (ibric)</text>
<path d="M544,285L544,315"  style="fill:none;stroke-width:2.16;stroke:rgb(0,0,0);" />
<path d="M459,345L630,345A15 15 0 0 0 645 330L645,330A15 15 0 0 0 630 315L459,315A15 15 0 0 0 444 330L444,330A15 15 0 0 0 459 345Z"  style="fill:none;stroke-width:2.16;stroke:rgb(0,0,0);" />
<text x="544" y="330" text-anchor="middle" fill="rgb(0,0,0)" dominant-baseline="central">drojdie proaspătă 75g</text>
<path d="M544,345L544,360"  style="fill:none;stroke-width:2.16;stroke:rgb(0,0,0);" />
<path d="M516,390L573,390A15 15 0 0 0 588 375L588,375A15 15 0 0 0 573 360L516,360A15 15 0 0 0 501 375L501,375A15 15 0 0 0 516 390Z"  style="fill:rgb(211,211,211);stroke-width:2.16;stroke:rgb(0,0,0);" />
<text x="544" y="375" text-anchor="middle" fill="rgb(0,0,0)" dominant-baseline="central">unt 200g</text>
<path d="M588,375L603,375"  style="fill:none;stroke-width:2.16;stroke:rgb(0,0,0);" />
<path d="M603,400L776,400L776,350L603,350Z"  style="fill:rgb(211,211,211);stroke-width:2.16;stroke:rgb(0,0,0);" />
<text x="689" y="365" text-anchor="middle" fill="rgb(0,0,0)" dominant-baseline="central">într-un bol metalic</text>
<text x="689" y="385" text-anchor="middle" fill="rgb(0,0,0)" dominant-baseline="central">pentru topire</text>
<path d="M544,390L544,420"  style="fill:none;stroke-width:2.16;stroke:rgb(0,0,0);" />
<path d="M506,450L582,450A15 15 0 0 0 597 435L597,435A15 15 0 0 0 582 420L506,420A15 15 0 0 0 491 435L491,435A15 15 0 0 0 506 450Z"  style="fill:none;stroke-width:2.16;stroke:rgb(0,0,0);" />
<text x="544" y="435" text-anchor="middle" fill="rgb(0,0,0)" dominant-baseline="central">zahar 250g</text>
<path d="M544,450L544,540"  style="fill:none;stroke-width:2.16;stroke:rgb(0,0,0);" />
<path d="M512,571L577,571A15 15 0 0 0 592 556L592,555A15 15 0 0 0 577 540L512,540A15 15 0 0 0 497 555L497,556A15 15 0 0 0 512 571Z"  style="fill:none;stroke-width:2.16;stroke:rgb(0,0,0);" />
<text x="544" y="556" text-anchor="middle" fill="rgb(0,0,0)" dominant-baseline="central">ouă 6 buc</text>
<polygon points="664,526 652,530 652,521" style="fill:rgb(0,0,0)"/>
<path d="M592,556L592,526L658,526"  style="fill:none;stroke-width:2.16;stroke-linejoin:round;stroke:rgb(0,0,0);" />
<path d="M679,541L816,541A15 15 0 0 0 831 526L831,525A15 15 0 0 0 816 510L679,510A15 15 0 0 0 664 525L664,526A15 15 0 0 0 679 541Z"  style="fill:rgb(0,255,255);stroke-width:2.16;stroke:rgb(0,0,0);" />
<text x="747" y="526" text-anchor="middle" fill="rgb(0,0,0)" dominant-baseline="central">gălbenușuri 5 buc</text>
<path d="M831,526L846,526"  style="fill:none;stroke-width:2.16;stroke:rgb(0,0,0);" />
<path d="M846,551L989,551L989,500L846,500Z"  style="fill:rgb(0,255,255);stroke-width:2.16;stroke:rgb(0,0,0);" />
<text x="917" y="516" text-anchor="middle" fill="rgb(0,0,0)" dominant-baseline="central">într-un bol</text>
<text x="917" y="536" text-anchor="middle" fill="rgb(0,0,0)" dominant-baseline="central">pentru amestec</text>
<polygon points="664,473 652,477 652,469" style="fill:rgb(0,0,0)"/>
<path d="M592,556L592,473L658,473"  style="fill:none;stroke-width:2.16;stroke-linejoin:round;stroke:rgb(0,0,0);" />
<path d="M679,488L816,488A15 15 0 0 0 831 473L831,473A15 15 0 0 0 816 458L679,458A15 15 0 0 0 664 473L664,473A15 15 0 0 0 679 488Z"  style="fill:none;stroke-width:2.16;stroke:rgb(0,0,0);" />
<text x="747" y="473" text-anchor="middle" fill="rgb(0,0,0)" dominant-baseline="central">gălbenușuri 1 buc</text>
<polygon points="664,586 652,590 652,581" style="fill:rgb(0,0,0)"/>
<path d="M592,556L592,586L658,586"  style="fill:none;stroke-width:2.16;stroke-linejoin:round;stroke:rgb(0,0,0);" />
<path d="M679,601L784,601A15 15 0 0 0 799 586L799,585A15 15 0 0 0 784 570L679,570A15 15 0 0 0 664 585L664,586A15 15 0 0 0 679 601Z"  style="fill:rgb(189,183,107);stroke-width:2.16;stroke:rgb(0,0,0);" />
<text x="731" y="586" text-anchor="middle" fill="rgb(0,0,0)" dominant-baseline="central">albușuri 3 buc</text>
<path d="M799,586L814,586"  style="fill:none;stroke-width:2.16;stroke:rgb(0,0,0);" />
<path d="M814,611L986,611L986,560L814,560Z"  style="fill:rgb(189,183,107);stroke-width:2.16;stroke:rgb(0,0,0);" />
<text x="900" y="576" text-anchor="middle" fill="rgb(0,0,0)" dominant-baseline="central">într-un bol</text>
<text x="900" y="596" text-anchor="middle" fill="rgb(0,0,0)" dominant-baseline="central">pentru bătut mixer</text>
<polygon points="664,646 652,650 652,641" style="fill:rgb(0,0,0)"/>
<path d="M592,556L592,646L658,646"  style="fill:none;stroke-width:2.16;stroke-linejoin:round;stroke:rgb(0,0,0);" />
<path d="M679,661L784,661A15 15 0 0 0 799 646L799,645A15 15 0 0 0 784 630L679,630A15 15 0 0 0 664 645L664,646A15 15 0 0 0 679 661Z"  style="fill:none;stroke-width:2.16;stroke:rgb(0,0,0);" />
<text x="731" y="646" text-anchor="middle" fill="rgb(0,0,0)" dominant-baseline="central">albușuri 3 buc</text>
<path d="M544,571L544,676"  style="fill:none;stroke-width:2.16;stroke:rgb(0,0,0);" />
<path d="M437,706L652,706A15 15 0 0 0 667 691L667,691A15 15 0 0 0 652 676L437,676A15 15 0 0 0 422 691L422,691A15 15 0 0 0 437 706Z"  style="fill:none;stroke-width:2.16;stroke:rgb(0,0,0);" />
<text x="544" y="691" text-anchor="middle" fill="rgb(0,0,0)" dominant-baseline="central">esență de rom 2 fiole (20g)</text>
<path d="M544,706L544,721"  style="fill:none;stroke-width:2.16;stroke:rgb(0,0,0);" />
<path d="M470,751L619,751A15 15 0 0 0 634 736L634,736A15 15 0 0 0 619 721L470,721A15 15 0 0 0 455 736L455,736A15 15 0 0 0 470 751Z"  style="fill:none;stroke-width:2.16;stroke:rgb(0,0,0);" />
<text x="544" y="736" text-anchor="middle" fill="rgb(0,0,0)" dominant-baseline="central">coajă rasă 1 lamâie</text>
<path d="M544,751L544,766"  style="fill:none;stroke-width:2.16;stroke:rgb(0,0,0);" />
<path d="M452,796L636,796A15 15 0 0 0 651 781L651,781A15 15 0 0 0 636 766L452,766A15 15 0 0 0 437 781L437,781A15 15 0 0 0 452 796Z"  style="fill:none;stroke-width:2.16;stroke:rgb(0,0,0);" />
<text x="544" y="781" text-anchor="middle" fill="rgb(0,0,0)" dominant-baseline="central">zahăr vanilinat 3 plicuri</text>
<path d="M544,796L544,811"  style="fill:none;stroke-width:2.16;stroke:rgb(0,0,0);" />
<path d="M485,842L603,842A15 15 0 0 0 618 827L618,826A15 15 0 0 0 603 811L485,811A15 15 0 0 0 470 826L470,827A15 15 0 0 0 485 842Z"  style="fill:none;stroke-width:2.16;stroke:rgb(0,0,0);" />
<text x="544" y="827" text-anchor="middle" fill="rgb(0,0,0)" dominant-baseline="central">sare 1 linguriță</text>
<polygon points="517,887 505,891 505,883" style="fill:rgb(0,0,0)"/>
<path d="M397,32L397,887L511,887"  style="fill:none;stroke-width:2.16;stroke-linejoin:round;stroke:rgb(0,0,0);" />
<path d="M517,902L586,902L586,872L517,872Z"  style="fill:none;stroke-width:2.16;stroke:rgb(0,0,0);" />
<text x="551" y="887" text-anchor="middle" fill="rgb(0,0,0)" dominant-baseline="central">Cremă</text>
<path d="M551,902L551,917"  style="fill:none;stroke-width:2.16;stroke:rgb(0,0,0);" />
<path d="M474,947L629,947A15 15 0 0 0 644 932L644,932A15 15 0 0 0 629 917L474,917A15 15 0 0 0 459 932L459,932A15 15 0 0 0 474 947Z"  style="fill:rgb(255,255,224);stroke-width:2.16;stroke:rgb(0,0,0);" />
<text x="551" y="932" text-anchor="middle" fill="rgb(0,0,0)" dominant-baseline="central">nucă macinată 250g</text>
<path d="M551,947L551,962"  style="fill:none;stroke-width:2.16;stroke:rgb(0,0,0);" />
<path d="M501,993L602,993A15 15 0 0 0 617 978L617,977A15 15 0 0 0 602 962L501,962A15 15 0 0 0 486 977L486,978A15 15 0 0 0 501 993Z"  style="fill:rgb(255,255,224);stroke-width:2.16;stroke:rgb(0,0,0);" />
<text x="551" y="977" text-anchor="middle" fill="rgb(0,0,0)" dominant-baseline="central">lapte 4 linguri</text>
<path d="M551,993L551,1008"  style="fill:none;stroke-width:2.16;stroke:rgb(0,0,0);" />
<path d="M498,1038L605,1038A15 15 0 0 0 620 1023L620,1023A15 15 0 0 0 605 1008L498,1008A15 15 0 0 0 483 1023L483,1023A15 15 0 0 0 498 1038Z"  style="fill:rgb(255,255,224);stroke-width:2.16;stroke:rgb(0,0,0);" />
<text x="551" y="1023" text-anchor="middle" fill="rgb(0,0,0)" dominant-baseline="central">zahăr 5 linguri</text>
<path d="M551,1038L551,1053"  style="fill:none;stroke-width:2.16;stroke:rgb(0,0,0);" />
<path d="M443,1083L660,1083A15 15 0 0 0 675 1068L675,1068A15 15 0 0 0 660 1053L443,1053A15 15 0 0 0 428 1068L428,1068A15 15 0 0 0 443 1083Z"  style="fill:rgb(255,255,224);stroke-width:2.16;stroke:rgb(0,0,0);" />
<text x="551" y="1068" text-anchor="middle" fill="rgb(0,0,0)" dominant-baseline="central">esență de rom 1 fiolă (10g)</text>
<path d="M551,1083L551,1098"  style="fill:none;stroke-width:2.16;stroke:rgb(0,0,0);" />
<path d="M495,1128L608,1128A15 15 0 0 0 623 1113L623,1113A15 15 0 0 0 608 1098L495,1098A15 15 0 0 0 480 1113L480,1113A15 15 0 0 0 495 1128Z"  style="fill:rgb(255,255,224);stroke-width:2.16;stroke:rgb(0,0,0);" />
<text x="551" y="1113" text-anchor="middle" fill="rgb(0,0,0)" dominant-baseline="central">cacao 1 lingură</text>
<polygon points="1070,17 1059,21 1059,12" style="fill:rgb(0,0,0)"/>
<path d="M485,17L1065,17"  style="fill:none;stroke-width:2.16;stroke:rgb(0,0,0);" />
<path d="M1070,32L1205,32L1205,2L1070,2Z"  style="fill:none;stroke-width:2.16;stroke:rgb(0,0,0);" />
<text x="1138" y="17" text-anchor="middle" fill="rgb(0,0,0)" dominant-baseline="central">12 ore înainte</text>
<polygon points="1138,62 1133,50 1142,50" style="fill:rgb(0,0,0)"/>
<path d="M1138,32L1138,56"  style="fill:none;stroke-width:2.16;stroke:rgb(0,0,0);" />
<path d="M1025,112L1251,112A15 15 0 0 0 1266 97L1266,77A15 15 0 0 0 1251 62L1025,62A15 15 0 0 0 1010 77L1010,97A15 15 0 0 0 1025 112Z"  style="fill:rgb(255,193,7);stroke-width:2.16;stroke:rgb(0,0,0);" />
<text x="1138" y="77" text-anchor="middle" fill="rgb(0,0,0)" dominant-baseline="central">cernut făină de 3 ori</text>
<text x="1138" y="97" text-anchor="middle" fill="rgb(0,0,0)" dominant-baseline="central">din vas într-o tavă și înapoi</text>
<polygon points="1138,142 1133,131 1142,131" style="fill:rgb(0,0,0)"/>
<path d="M1138,112L1138,137"  style="fill:none;stroke-width:2.16;stroke:rgb(0,0,0);" />
<path d="M996,213L1279,213A15 15 0 0 0 1294 198L1294,157A15 15 0 0 0 1279 142L996,142A15 15 0 0 0 981 157L981,198A15 15 0 0 0 996 213Z"  style="fill:none;stroke-width:2.16;stroke:rgb(0,0,0);" />
<text x="1138" y="157" text-anchor="middle" fill="rgb(0,0,0)" dominant-baseline="central">ingrediente la temperatura camerei</text>
<text x="1138" y="178" text-anchor="middle" fill="rgb(0,0,0)" dominant-baseline="central">ouăle, laptele, zahăr, făină</text>
<text x="1138" y="198" text-anchor="middle" fill="rgb(0,0,0)" dominant-baseline="central">...</text>
<polygon points="1445,17 1434,21 1434,12" style="fill:rgb(0,0,0)"/>
<path d="M1205,17L1440,17"  style="fill:none;stroke-width:2.16;stroke:rgb(0,0,0);" />
<path d="M1445,32L1526,32L1526,2L1445,2Z"  style="fill:none;stroke-width:2.16;stroke:rgb(0,0,0);" />
<text x="1486" y="17" text-anchor="middle" fill="rgb(0,0,0)" dominant-baseline="central">început</text>
<polygon points="1486,62 1481,50 1490,50" style="fill:rgb(0,0,0)"/>
<path d="M1486,32L1486,56"  style="fill:none;stroke-width:2.16;stroke:rgb(0,0,0);" />
<path d="M1403,112L1568,112A15 15 0 0 0 1583 97L1583,77A15 15 0 0 0 1568 62L1403,62A15 15 0 0 0 1388 77L1388,97A15 15 0 0 0 1403 112Z"  style="fill:rgb(0,255,255);stroke-width:2.16;stroke:rgb(0,0,0);" />
<text x="1486" y="77" text-anchor="middle" fill="rgb(0,0,0)" dominant-baseline="central">separă 5 gălbenușuri</text>
<text x="1486" y="97" text-anchor="middle" fill="rgb(0,0,0)" dominant-baseline="central">într-un castron</text>
<polygon points="1486,142 1481,131 1490,131" style="fill:rgb(0,0,0)"/>
<path d="M1486,112L1486,137"  style="fill:none;stroke-width:2.16;stroke:rgb(0,0,0);" />
<path d="M1446,173L1525,173A15 15 0 0 0 1540 158L1540,157A15 15 0 0 0 1525 142L1446,142A15 15 0 0 0 1431 157L1431,158A15 15 0 0 0 1446 173Z"  style="fill:rgb(0,255,255);stroke-width:2.16;stroke:rgb(0,0,0);" />
<text x="1486" y="157" text-anchor="middle" fill="rgb(0,0,0)" dominant-baseline="central">amestecare</text>
<polygon points="1486,203 1481,191 1490,191" style="fill:rgb(0,0,0)"/>
<path d="M1486,173L1486,197"  style="fill:none;stroke-width:2.16;stroke:rgb(0,0,0);" />
<path d="M1364,233L1607,233A15 15 0 0 0 1622 218L1622,218A15 15 0 0 0 1607 203L1364,203A15 15 0 0 0 1349 218L1349,218A15 15 0 0 0 1364 233Z"  style="fill:rgb(0,255,255);stroke-width:2.16;stroke:rgb(0,0,0);" />
<text x="1486" y="218" text-anchor="middle" fill="rgb(0,0,0)" dominant-baseline="central">răzătoare pentru coajă lămâie</text>
<polygon points="1486,263 1481,251 1490,251" style="fill:rgb(0,0,0)"/>
<path d="M1486,233L1486,257"  style="fill:none;stroke-width:2.16;stroke:rgb(0,0,0);" />
<path d="M1405,293L1566,293A15 15 0 0 0 1581 278L1581,278A15 15 0 0 0 1566 263L1405,263A15 15 0 0 0 1390 278L1390,278A15 15 0 0 0 1405 293Z"  style="fill:rgb(0,255,255);stroke-width:2.16;stroke:rgb(0,0,0);" />
<text x="1486" y="278" text-anchor="middle" fill="rgb(0,0,0)" dominant-baseline="central">adaugă coajă lămâie</text>
<polygon points="1486,323 1481,312 1490,312" style="fill:rgb(0,0,0)"/>
<path d="M1486,293L1486,317"  style="fill:none;stroke-width:2.16;stroke:rgb(0,0,0);" />
<path d="M1446,353L1525,353A15 15 0 0 0 1540 338L1540,338A15 15 0 0 0 1525 323L1446,323A15 15 0 0 0 1431 338L1431,338A15 15 0 0 0 1446 353Z"  style="fill:rgb(0,255,255);stroke-width:2.16;stroke:rgb(0,0,0);" />
<text x="1486" y="338" text-anchor="middle" fill="rgb(0,0,0)" dominant-baseline="central">amestecare</text>
<polygon points="1486,323 1481,312 1490,312" style="fill:rgb(0,0,0)"/>
<path d="M1486,293L1486,317"  style="fill:none;stroke-width:2.16;stroke:rgb(0,0,0);" />
<path d="M1446,353L1525,353A15 15 0 0 0 1540 338L1540,338A15 15 0 0 0 1525 323L1446,323A15 15 0 0 0 1431 338L1431,338A15 15 0 0 0 1446 353Z"  style="fill:none;stroke-width:2.16;stroke:rgb(0,0,0);" />
<text x="1486" y="338" text-anchor="middle" fill="rgb(0,0,0)" dominant-baseline="central">amestecare</text>
<polygon points="1486,383 1481,372 1490,372" style="fill:rgb(0,0,0)"/>
<path d="M1486,353L1486,378"  style="fill:none;stroke-width:2.16;stroke:rgb(0,0,0);" />
<path d="M1317,414L1654,414L1654,383L1317,383Z"  style="fill:rgb(7,255,20);stroke-width:2.16;stroke:rgb(0,0,0);" />
<text x="1486" y="398" text-anchor="middle" fill="rgb(0,0,0)" dominant-baseline="central">maia - în vasul celor 4 linguri de lapte</text>
<polygon points="1486,444 1481,432 1490,432" style="fill:rgb(0,0,0)"/>
<path d="M1486,414L1486,438"  style="fill:none;stroke-width:2.16;stroke:rgb(0,0,0);" />
<path d="M1403,494L1569,494A15 15 0 0 0 1584 479L1584,459A15 15 0 0 0 1569 444L1403,444A15 15 0 0 0 1388 459L1388,479A15 15 0 0 0 1403 494Z"  style="fill:rgb(7,255,20);stroke-width:2.16;stroke:rgb(0,0,0);" />
<text x="1486" y="459" text-anchor="middle" fill="rgb(0,0,0)" dominant-baseline="central">cele 4 linguri de lapte</text>
<text x="1486" y="479" text-anchor="middle" fill="rgb(0,0,0)" dominant-baseline="central">se încălzesc un pic</text>
<polygon points="1486,524 1481,512 1490,512" style="fill:rgb(0,0,0)"/>
<path d="M1486,494L1486,518"  style="fill:none;stroke-width:2.16;stroke:rgb(0,0,0);" />
<path d="M1426,554L1545,554A15 15 0 0 0 1560 539L1560,539A15 15 0 0 0 1545 524L1426,524A15 15 0 0 0 1411 539L1411,539A15 15 0 0 0 1426 554Z"  style="fill:rgb(7,255,20);stroke-width:2.16;stroke:rgb(0,0,0);" />
<text x="1486" y="539" text-anchor="middle" fill="rgb(0,0,0)" dominant-baseline="central">se ia o linguriță</text>
<polygon points="1486,584 1481,573 1490,573" style="fill:rgb(0,0,0)"/>
<path d="M1486,554L1486,578"  style="fill:none;stroke-width:2.16;stroke:rgb(0,0,0);" />
<path d="M1343,614L1628,614A15 15 0 0 0 1643 599L1643,599A15 15 0 0 0 1628 584L1343,584A15 15 0 0 0 1328 599L1328,599A15 15 0 0 0 1343 614Z"  style="fill:rgb(7,255,20);stroke-width:2.16;stroke:rgb(0,0,0);" />
<text x="1486" y="599" text-anchor="middle" fill="rgb(0,0,0)" dominant-baseline="central">dizolvă drojdia în 4 linguri de lapte</text>
<polygon points="1486,644 1481,633 1490,633" style="fill:rgb(0,0,0)"/>
<path d="M1486,614L1486,639"  style="fill:none;stroke-width:2.16;stroke:rgb(0,0,0);" />
<path d="M1346,675L1625,675A15 15 0 0 0 1640 660L1640,659A15 15 0 0 0 1625 644L1346,644A15 15 0 0 0 1331 659L1331,660A15 15 0 0 0 1346 675Z"  style="fill:rgb(7,255,20);stroke-width:2.16;stroke:rgb(0,0,0);" />
<text x="1486" y="660" text-anchor="middle" fill="rgb(0,0,0)" dominant-baseline="central">adaugă 3 linguri făină amestecând</text>
<polygon points="1486,705 1481,693 1490,693" style="fill:rgb(0,0,0)"/>
<path d="M1486,675L1486,699"  style="fill:none;stroke-width:2.16;stroke:rgb(0,0,0);" />
<path d="M1333,735L1639,735A15 15 0 0 0 1654 720L1654,720A15 15 0 0 0 1639 705L1333,705A15 15 0 0 0 1318 720L1318,720A15 15 0 0 0 1333 735Z"  style="fill:rgb(7,255,20);stroke-width:2.16;stroke:rgb(0,0,0);" />
<text x="1486" y="720" text-anchor="middle" fill="rgb(0,0,0)" dominant-baseline="central">adaugă 1 linguriță zahăr amestecând</text>
<polygon points="1486,765 1481,753 1490,753" style="fill:rgb(0,0,0)"/>
<path d="M1486,735L1486,759"  style="fill:none;stroke-width:2.16;stroke:rgb(0,0,0);" />
<path d="M1420,795L1551,795A15 15 0 0 0 1566 780L1566,780A15 15 0 0 0 1551 765L1420,765A15 15 0 0 0 1405 780L1405,780A15 15 0 0 0 1420 795Z"  style="fill:rgb(7,255,20);stroke-width:2.16;stroke:rgb(0,0,0);" />
<text x="1486" y="780" text-anchor="middle" fill="rgb(0,0,0)" dominant-baseline="central">se lăsă la crescut</text>
<polygon points="1486,825 1481,814 1490,814" style="fill:rgb(0,0,0)"/>
<path d="M1486,795L1486,819"  style="fill:none;stroke-width:2.16;stroke:rgb(0,0,0);" />
<path d="M1452,855L1519,855A15 15 0 0 0 1534 840L1534,840A15 15 0 0 0 1519 825L1452,825A15 15 0 0 0 1437 840L1437,840A15 15 0 0 0 1452 855Z"  style="fill:rgb(7,255,20);stroke-width:2.16;stroke:rgb(0,0,0);" />
<text x="1486" y="840" text-anchor="middle" fill="rgb(0,0,0)" dominant-baseline="central">20 minute</text>
<polygon points="1611,780 1599,784 1599,776" style="fill:rgb(0,0,0)"/>
<path d="M1566,780L1605,780"  style="fill:none;stroke-width:2.16;stroke:rgb(0,0,0);" />
<path d="M1626,805L1748,805A15 15 0 0 0 1763 790L1763,770A15 15 0 0 0 1748 755L1626,755A15 15 0 0 0 1611 770L1611,790A15 15 0 0 0 1626 805Z"  style="fill:rgb(255,228,181);stroke-width:2.16;stroke:rgb(0,0,0);" />
<text x="1687" y="770" text-anchor="middle" fill="rgb(0,0,0)" dominant-baseline="central">se poate aștepta</text>
<text x="1687" y="790" text-anchor="middle" fill="rgb(0,0,0)" dominant-baseline="central">dacă este cazul</text>
<polygon points="1687,835 1682,824 1691,824" style="fill:rgb(0,0,0)"/>
<path d="M1687,805L1687,829"  style="fill:none;stroke-width:2.16;stroke:rgb(0,0,0);" />
<path d="M1627,865L1746,865A15 15 0 0 0 1761 850L1761,850A15 15 0 0 0 1746 835L1627,835A15 15 0 0 0 1612 850L1612,850A15 15 0 0 0 1627 865Z"  style="fill:rgb(211,211,211);stroke-width:2.16;stroke:rgb(0,0,0);" />
<text x="1687" y="850" text-anchor="middle" fill="rgb(0,0,0)" dominant-baseline="central">se topește untul</text>
<polygon points="1687,895 1682,884 1691,884" style="fill:rgb(0,0,0)"/>
<path d="M1687,865L1687,890"  style="fill:none;stroke-width:2.16;stroke:rgb(0,0,0);" />
<path d="M1578,926L1795,926A15 15 0 0 0 1810 911L1810,910A15 15 0 0 0 1795 895L1578,895A15 15 0 0 0 1563 910L1563,911A15 15 0 0 0 1578 926Z"  style="fill:rgb(173,216,230);stroke-width:2.16;stroke:rgb(0,0,0);" />
<text x="1687" y="911" text-anchor="middle" fill="rgb(0,0,0)" dominant-baseline="central">se încălzește puțin laptele</text>
<polygon points="1687,956 1682,944 1691,944" style="fill:rgb(0,0,0)"/>
<path d="M1687,926L1687,950"  style="fill:none;stroke-width:2.16;stroke:rgb(0,0,0);" />
<path d="M1581,986L1792,986A15 15 0 0 0 1807 971L1807,971A15 15 0 0 0 1792 956L1581,956A15 15 0 0 0 1566 971L1566,971A15 15 0 0 0 1581 986Z"  style="fill:rgb(173,216,230);stroke-width:2.16;stroke:rgb(0,0,0);" />
<text x="1687" y="971" text-anchor="middle" fill="rgb(0,0,0)" dominant-baseline="central">se disolvă zahărul în lapte</text>
<polygon points="1687,1016 1682,1004 1691,1004" style="fill:rgb(0,0,0)"/>
<path d="M1687,986L1687,1010"  style="fill:none;stroke-width:2.16;stroke:rgb(0,0,0);" />
<path d="M1615,1066L1758,1066A15 15 0 0 0 1773 1051L1773,1031A15 15 0 0 0 1758 1016L1615,1016A15 15 0 0 0 1600 1031L1600,1051A15 15 0 0 0 1615 1066Z"  style="fill:rgb(144,238,144);stroke-width:2.16;stroke:rgb(0,0,0);" />
<text x="1687" y="1031" text-anchor="middle" fill="rgb(0,0,0)" dominant-baseline="central">se ia vasul cu făina</text>
<text x="1687" y="1051" text-anchor="middle" fill="rgb(0,0,0)" dominant-baseline="central">pentru toată coca</text>
<polygon points="1600,1041 1589,1045 1589,1037" style="fill:rgb(0,0,0)"/>
<path d="M1486,855L1486,1041L1594,1041"  style="fill:none;stroke-width:2.16;stroke-linejoin:round;stroke:rgb(0,0,0);" />
<polygon points="1687,1096 1682,1085 1691,1085" style="fill:rgb(0,0,0)"/>
<path d="M1687,1066L1687,1091"  style="fill:none;stroke-width:2.16;stroke:rgb(0,0,0);" />
<path d="M1604,1127L1770,1127A15 15 0 0 0 1785 1112L1785,1111A15 15 0 0 0 1770 1096L1604,1096A15 15 0 0 0 1589 1111L1589,1112A15 15 0 0 0 1604 1127Z"  style="fill:rgb(144,238,144);stroke-width:2.16;stroke:rgb(0,0,0);" />
<text x="1687" y="1111" text-anchor="middle" fill="rgb(0,0,0)" dominant-baseline="central">făina este deja în vas</text>
<polygon points="1687,1157 1682,1145 1691,1145" style="fill:rgb(0,0,0)"/>
<path d="M1687,1127L1687,1151"  style="fill:none;stroke-width:2.16;stroke:rgb(0,0,0);" />
<path d="M1619,1187L1754,1187A15 15 0 0 0 1769 1172L1769,1172A15 15 0 0 0 1754 1157L1619,1157A15 15 0 0 0 1604 1172L1604,1172A15 15 0 0 0 1619 1187Z"  style="fill:rgb(144,238,144);stroke-width:2.16;stroke:rgb(0,0,0);" />
<text x="1687" y="1172" text-anchor="middle" fill="rgb(0,0,0)" dominant-baseline="central">se adaugă maiaua</text>
<polygon points="1687,1217 1682,1205 1691,1205" style="fill:rgb(0,0,0)"/>
<path d="M1687,1187L1687,1211"  style="fill:none;stroke-width:2.16;stroke:rgb(0,0,0);" />
<path d="M1592,1267L1782,1267A15 15 0 0 0 1797 1252L1797,1232A15 15 0 0 0 1782 1217L1592,1217A15 15 0 0 0 1577 1232L1577,1252A15 15 0 0 0 1592 1267Z"  style="fill:rgb(144,238,144);stroke-width:2.16;stroke:rgb(0,0,0);" />
<text x="1687" y="1232" text-anchor="middle" fill="rgb(0,0,0)" dominant-baseline="central">se adaugă gălbenusurile</text>
<text x="1687" y="1252" text-anchor="middle" fill="rgb(0,0,0)" dominant-baseline="central">cu coaja de lămâie</text>
<polygon points="1687,1297 1682,1286 1691,1286" style="fill:rgb(0,0,0)"/>
<path d="M1687,1267L1687,1291"  style="fill:none;stroke-width:2.16;stroke:rgb(0,0,0);" />
<path d="M1574,1327L1800,1327A15 15 0 0 0 1815 1312L1815,1312A15 15 0 0 0 1800 1297L1574,1297A15 15 0 0 0 1559 1312L1559,1312A15 15 0 0 0 1574 1327Z"  style="fill:rgb(144,238,144);stroke-width:2.16;stroke:rgb(0,0,0);" />
<text x="1687" y="1312" text-anchor="middle" fill="rgb(0,0,0)" dominant-baseline="central">se adaugă laptele cu zahărul</text>
<polygon points="1687,1357 1682,1346 1691,1346" style="fill:rgb(0,0,0)"/>
<path d="M1687,1327L1687,1352"  style="fill:none;stroke-width:2.16;stroke:rgb(0,0,0);" />
<path d="M1578,1388L1795,1388A15 15 0 0 0 1810 1373L1810,1372A15 15 0 0 0 1795 1357L1578,1357A15 15 0 0 0 1563 1372L1563,1373A15 15 0 0 0 1578 1388Z"  style="fill:rgb(144,238,144);stroke-width:2.16;stroke:rgb(0,0,0);" />
<text x="1687" y="1373" text-anchor="middle" fill="rgb(0,0,0)" dominant-baseline="central">se adaugă zahărul vanilinat</text>
<polygon points="1687,1418 1682,1406 1691,1406" style="fill:rgb(0,0,0)"/>
<path d="M1687,1388L1687,1412"  style="fill:none;stroke-width:2.16;stroke:rgb(0,0,0);" />
<path d="M1580,1448L1794,1448A15 15 0 0 0 1809 1433L1809,1433A15 15 0 0 0 1794 1418L1580,1418A15 15 0 0 0 1565 1433L1565,1433A15 15 0 0 0 1580 1448Z"  style="fill:rgb(144,238,144);stroke-width:2.16;stroke:rgb(0,0,0);" />
<text x="1687" y="1433" text-anchor="middle" fill="rgb(0,0,0)" dominant-baseline="central">se adaugă 2 esențe de rom</text>
<polygon points="1687,1478 1682,1466 1691,1466" style="fill:rgb(0,0,0)"/>
<path d="M1687,1448L1687,1472"  style="fill:none;stroke-width:2.16;stroke:rgb(0,0,0);" />
<path d="M1596,1528L1778,1528A15 15 0 0 0 1793 1513L1793,1493A15 15 0 0 0 1778 1478L1596,1478A15 15 0 0 0 1581 1493L1581,1513A15 15 0 0 0 1596 1528Z"  style="fill:rgb(144,238,144);stroke-width:2.16;stroke:rgb(0,0,0);" />
<text x="1687" y="1493" text-anchor="middle" fill="rgb(0,0,0)" dominant-baseline="central">se amestecă</text>
<text x="1687" y="1513" text-anchor="middle" fill="rgb(0,0,0)" dominant-baseline="central">să curpindă toată făina</text>
<polygon points="1687,1558 1682,1547 1691,1547" style="fill:rgb(0,0,0)"/>
<path d="M1687,1528L1687,1553"  style="fill:none;stroke-width:2.16;stroke:rgb(0,0,0);" />
<path d="M1561,1609L1813,1609A15 15 0 0 0 1828 1594L1828,1573A15 15 0 0 0 1813 1558L1561,1558A15 15 0 0 0 1546 1573L1546,1594A15 15 0 0 0 1561 1609Z"  style="fill:rgb(144,238,144);stroke-width:2.16;stroke:rgb(0,0,0);" />
<text x="1687" y="1573" text-anchor="middle" fill="rgb(0,0,0)" dominant-baseline="central">se frământă 30 minute</text>
<text x="1687" y="1594" text-anchor="middle" fill="rgb(0,0,0)" dominant-baseline="central">se adaugă câte o lingură de unt</text>
<polygon points="1687,1639 1682,1627 1691,1627" style="fill:rgb(0,0,0)"/>
<path d="M1687,1609L1687,1633"  style="fill:none;stroke-width:2.16;stroke:rgb(0,0,0);" />
<path d="M1544,1689L1830,1689A15 15 0 0 0 1845 1674L1845,1654A15 15 0 0 0 1830 1639L1544,1639A15 15 0 0 0 1529 1654L1529,1674A15 15 0 0 0 1544 1689Z"  style="fill:rgb(144,238,144);stroke-width:2.16;stroke:rgb(0,0,0);" />
<text x="1687" y="1654" text-anchor="middle" fill="rgb(0,0,0)" dominant-baseline="central">se presară un pic de făina deasupra</text>
<text x="1687" y="1674" text-anchor="middle" fill="rgb(0,0,0)" dominant-baseline="central">se acoperă cu un prosop</text>
<polygon points="1687,1719 1682,1708 1691,1708" style="fill:rgb(0,0,0)"/>
<path d="M1687,1689L1687,1713"  style="fill:none;stroke-width:2.16;stroke:rgb(0,0,0);" />
<path d="M1634,1749L1739,1749A15 15 0 0 0 1754 1734L1754,1734A15 15 0 0 0 1739 1719L1634,1719A15 15 0 0 0 1619 1734L1619,1734A15 15 0 0 0 1634 1749Z"  style="fill:rgb(144,238,144);stroke-width:2.16;stroke:rgb(0,0,0);" />
<text x="1687" y="1734" text-anchor="middle" fill="rgb(0,0,0)" dominant-baseline="central">se dă la dospit</text>
<polygon points="1687,1779 1682,1768 1691,1768" style="fill:rgb(0,0,0)"/>
<path d="M1687,1749L1687,1774"  style="fill:none;stroke-width:2.16;stroke:rgb(0,0,0);" />
<path d="M1605,1810L1769,1810A15 15 0 0 0 1784 1795L1784,1794A15 15 0 0 0 1769 1779L1605,1779A15 15 0 0 0 1590 1794L1590,1795A15 15 0 0 0 1605 1810Z"  style="fill:rgb(144,238,144);stroke-width:2.16;stroke:rgb(0,0,0);" />
<text x="1687" y="1794" text-anchor="middle" fill="rgb(0,0,0)" dominant-baseline="central">60 minute în loc cald</text>
<polygon points="1844,1734 1833,1739 1833,1730" style="fill:rgb(0,0,0)"/>
<path d="M1754,1734L1839,1734"  style="fill:none;stroke-width:2.16;stroke:rgb(0,0,0);" />
<path d="M1859,1759L1982,1759A15 15 0 0 0 1997 1744L1997,1724A15 15 0 0 0 1982 1709L1859,1709A15 15 0 0 0 1844 1724L1844,1744A15 15 0 0 0 1859 1759Z"  style="fill:rgb(255,228,181);stroke-width:2.16;stroke:rgb(0,0,0);" />
<text x="1920" y="1724" text-anchor="middle" fill="rgb(0,0,0)" dominant-baseline="central">se poate aștepta</text>
<text x="1920" y="1744" text-anchor="middle" fill="rgb(0,0,0)" dominant-baseline="central">dacă este cazul</text>
<polygon points="1920,1789 1916,1778 1925,1778" style="fill:rgb(0,0,0)"/>
<path d="M1920,1759L1920,1784"  style="fill:none;stroke-width:2.16;stroke:rgb(0,0,0);" />
<path d="M1814,1840L2027,1840A15 15 0 0 0 2042 1825L2042,1804A15 15 0 0 0 2027 1789L1814,1789A15 15 0 0 0 1799 1804L1799,1825A15 15 0 0 0 1814 1840Z"  style="fill:rgb(255,255,224);stroke-width:2.16;stroke:rgb(0,0,0);" />
<text x="1920" y="1805" text-anchor="middle" fill="rgb(0,0,0)" dominant-baseline="central">nuca măcinată</text>
<text x="1920" y="1825" text-anchor="middle" fill="rgb(0,0,0)" dominant-baseline="central">într-un castron mare 20cm</text>
<polygon points="1920,1870 1916,1858 1925,1858" style="fill:rgb(0,0,0)"/>
<path d="M1920,1840L1920,1864"  style="fill:none;stroke-width:2.16;stroke:rgb(0,0,0);" />
<path d="M1874,1920L1967,1920A15 15 0 0 0 1982 1905L1982,1885A15 15 0 0 0 1967 1870L1874,1870A15 15 0 0 0 1859 1885L1859,1905A15 15 0 0 0 1874 1920Z"  style="fill:rgb(255,255,224);stroke-width:2.16;stroke:rgb(0,0,0);" />
<text x="1920" y="1885" text-anchor="middle" fill="rgb(0,0,0)" dominant-baseline="central">adaugă lapte</text>
<text x="1920" y="1905" text-anchor="middle" fill="rgb(0,0,0)" dominant-baseline="central">4 linguri</text>
<polygon points="1920,1950 1916,1939 1925,1939" style="fill:rgb(0,0,0)"/>
<path d="M1920,1920L1920,1944"  style="fill:none;stroke-width:2.16;stroke:rgb(0,0,0);" />
<path d="M1872,2001L1969,2001A15 15 0 0 0 1984 1986L1984,1965A15 15 0 0 0 1969 1950L1872,1950A15 15 0 0 0 1857 1965L1857,1986A15 15 0 0 0 1872 2001Z"  style="fill:rgb(255,255,224);stroke-width:2.16;stroke:rgb(0,0,0);" />
<text x="1920" y="1965" text-anchor="middle" fill="rgb(0,0,0)" dominant-baseline="central">adaugă zahar</text>
<text x="1920" y="1986" text-anchor="middle" fill="rgb(0,0,0)" dominant-baseline="central">5 linguri</text>
<polygon points="1920,2031 1916,2019 1925,2019" style="fill:rgb(0,0,0)"/>
<path d="M1920,2001L1920,2025"  style="fill:none;stroke-width:2.16;stroke:rgb(0,0,0);" />
<path d="M1878,2081L1963,2081A15 15 0 0 0 1978 2066L1978,2046A15 15 0 0 0 1963 2031L1878,2031A15 15 0 0 0 1863 2046L1863,2066A15 15 0 0 0 1878 2081Z"  style="fill:rgb(255,255,224);stroke-width:2.16;stroke:rgb(0,0,0);" />
<text x="1920" y="2046" text-anchor="middle" fill="rgb(0,0,0)" dominant-baseline="central">adaugă rom</text>
<text x="1920" y="2066" text-anchor="middle" fill="rgb(0,0,0)" dominant-baseline="central">1 fiolă (10g)</text>
<polygon points="1920,2111 1916,2100 1925,2100" style="fill:rgb(0,0,0)"/>
<path d="M1920,2081L1920,2105"  style="fill:none;stroke-width:2.16;stroke:rgb(0,0,0);" />
<path d="M1866,2161L1974,2161A15 15 0 0 0 1989 2146L1989,2126A15 15 0 0 0 1974 2111L1866,2111A15 15 0 0 0 1851 2126L1851,2146A15 15 0 0 0 1866 2161Z"  style="fill:rgb(255,255,224);stroke-width:2.16;stroke:rgb(0,0,0);" />
<text x="1920" y="2126" text-anchor="middle" fill="rgb(0,0,0)" dominant-baseline="central">adaugă cacaoa</text>
<text x="1920" y="2146" text-anchor="middle" fill="rgb(0,0,0)" dominant-baseline="central">1 lingură</text>
<polygon points="1920,2191 1916,2180 1925,2180" style="fill:rgb(0,0,0)"/>
<path d="M1920,2161L1920,2186"  style="fill:none;stroke-width:2.16;stroke:rgb(0,0,0);" />
<path d="M1758,2222L2083,2222A15 15 0 0 0 2098 2207L2098,2206A15 15 0 0 0 2083 2191L1758,2191A15 15 0 0 0 1743 2206L1743,2207A15 15 0 0 0 1758 2222Z"  style="fill:rgb(189,183,107);stroke-width:2.16;stroke:rgb(0,0,0);" />
<text x="1920" y="2207" text-anchor="middle" fill="rgb(0,0,0)" dominant-baseline="central">se mixează 3 albușuri cu zahăr vanilinat</text>
<polygon points="1920,2252 1916,2240 1925,2240" style="fill:rgb(0,0,0)"/>
<path d="M1920,2222L1920,2246"  style="fill:none;stroke-width:2.16;stroke:rgb(0,0,0);" />
<path d="M1803,2282L2037,2282A15 15 0 0 0 2052 2267L2052,2267A15 15 0 0 0 2037 2252L1803,2252A15 15 0 0 0 1788 2267L1788,2267A15 15 0 0 0 1803 2282Z"  style="fill:rgb(255,255,224);stroke-width:2.16;stroke:rgb(0,0,0);" />
<text x="1920" y="2267" text-anchor="middle" fill="rgb(0,0,0)" dominant-baseline="central">se amestecă albușuri cu nuca</text>
<polygon points="1920,2312 1916,2300 1925,2300" style="fill:rgb(0,0,0)"/>
<path d="M1920,2282L1920,2306"  style="fill:none;stroke-width:2.16;stroke:rgb(0,0,0);" />
<path d="M1845,2342L1996,2342A15 15 0 0 0 2011 2327L2011,2327A15 15 0 0 0 1996 2312L1845,2312A15 15 0 0 0 1830 2327L1830,2327A15 15 0 0 0 1845 2342Z"  style="fill:rgb(255,165,0);stroke-width:2.16;stroke:rgb(0,0,0);" />
<text x="1920" y="2327" text-anchor="middle" fill="rgb(0,0,0)" dominant-baseline="central">se ponește cuptorul</text>
<polygon points="1920,2372 1916,2361 1925,2361" style="fill:rgb(0,0,0)"/>
<path d="M1920,2342L1920,2366"  style="fill:none;stroke-width:2.16;stroke:rgb(0,0,0);" />
<path d="M1849,2423L1992,2423A15 15 0 0 0 2007 2408L2007,2387A15 15 0 0 0 1992 2372L1849,2372A15 15 0 0 0 1834 2387L1834,2408A15 15 0 0 0 1849 2423Z"  style="fill:rgb(255,165,0);stroke-width:2.16;stroke:rgb(0,0,0);" />
<text x="1920" y="2387" text-anchor="middle" fill="rgb(0,0,0)" dominant-baseline="central">se pregătesc 2 tăvi</text>
<text x="1920" y="2407" text-anchor="middle" fill="rgb(0,0,0)" dominant-baseline="central">cu hârtie de copt</text>
<polygon points="1920,2453 1916,2441 1925,2441" style="fill:rgb(0,0,0)"/>
<path d="M1920,2423L1920,2447"  style="fill:none;stroke-width:2.16;stroke:rgb(0,0,0);" />
<path d="M1837,2503L2004,2503A15 15 0 0 0 2019 2488L2019,2468A15 15 0 0 0 2004 2453L1837,2453A15 15 0 0 0 1822 2468L1822,2488A15 15 0 0 0 1837 2503Z"  style="fill:rgb(255,165,0);stroke-width:2.16;stroke:rgb(0,0,0);" />
<text x="1920" y="2468" text-anchor="middle" fill="rgb(0,0,0)" dominant-baseline="central">se aduc tăvile</text>
<text x="1920" y="2488" text-anchor="middle" fill="rgb(0,0,0)" dominant-baseline="central">aproape de suprafață</text>
<polygon points="1920,2533 1916,2521 1925,2521" style="fill:rgb(0,0,0)"/>
<path d="M1920,2503L1920,2527"  style="fill:none;stroke-width:2.16;stroke:rgb(0,0,0);" />
<path d="M1840,2624L2001,2624A15 15 0 0 0 2016 2609L2016,2548A15 15 0 0 0 2001 2533L1840,2533A15 15 0 0 0 1825 2548L1825,2609A15 15 0 0 0 1840 2624Z"  style="fill:rgb(0,191,255);stroke-width:2.16;stroke:rgb(0,0,0);" />
<text x="1920" y="2548" text-anchor="middle" fill="rgb(0,0,0)" dominant-baseline="central">se unge suprafața</text>
<text x="1920" y="2568" text-anchor="middle" fill="rgb(0,0,0)" dominant-baseline="central">(mușama)</text>
<text x="1920" y="2588" text-anchor="middle" fill="rgb(0,0,0)" dominant-baseline="central">unde se fac cozonacii</text>
<text x="1920" y="2609" text-anchor="middle" fill="rgb(0,0,0)" dominant-baseline="central">cu puțin ulei</text>
<polygon points="1920,2654 1916,2642 1925,2642" style="fill:rgb(0,0,0)"/>
<path d="M1920,2624L1920,2648"  style="fill:none;stroke-width:2.16;stroke:rgb(0,0,0);" />
<path d="M1792,2724L2049,2724A15 15 0 0 0 2064 2709L2064,2669A15 15 0 0 0 2049 2654L1792,2654A15 15 0 0 0 1777 2669L1777,2709A15 15 0 0 0 1792 2724Z"  style="fill:none;stroke-width:2.16;stroke:rgb(0,0,0);" />
<text x="1920" y="2669" text-anchor="middle" fill="rgb(0,0,0)" dominant-baseline="central">se îmarte coca în două</text>
<text x="1920" y="2689" text-anchor="middle" fill="rgb(0,0,0)" dominant-baseline="central">jumătate pe suprafața de întins</text>
<text x="1920" y="2709" text-anchor="middle" fill="rgb(0,0,0)" dominant-baseline="central">jumătate înapoi în vas</text>
<polygon points="1777,2689 1765,2693 1765,2685" style="fill:rgb(0,0,0)"/>
<path d="M1687,1810L1687,2689L1771,2689"  style="fill:none;stroke-width:2.16;stroke-linejoin:round;stroke:rgb(0,0,0);" />
<polygon points="1920,2754 1916,2743 1925,2743" style="fill:rgb(0,0,0)"/>
<path d="M1920,2724L1920,2748"  style="fill:none;stroke-width:2.16;stroke:rgb(0,0,0);" />
<path d="M1794,2805L2047,2805A15 15 0 0 0 2062 2790L2062,2769A15 15 0 0 0 2047 2754L1794,2754A15 15 0 0 0 1779 2769L1779,2790A15 15 0 0 0 1794 2805Z"  style="fill:rgb(0,191,255);stroke-width:2.16;stroke:rgb(0,0,0);" />
<text x="1920" y="2769" text-anchor="middle" fill="rgb(0,0,0)" dominant-baseline="central">se îmarte din nou coca în două</text>
<text x="1920" y="2790" text-anchor="middle" fill="rgb(0,0,0)" dominant-baseline="central">pe suprafața de întins</text>
<polygon points="1920,2835 1916,2823 1925,2823" style="fill:rgb(0,0,0)"/>
<path d="M1920,2805L1920,2829"  style="fill:none;stroke-width:2.16;stroke:rgb(0,0,0);" />
<path d="M1810,2905L2031,2905A15 15 0 0 0 2046 2890L2046,2850A15 15 0 0 0 2031 2835L1810,2835A15 15 0 0 0 1795 2850L1795,2890A15 15 0 0 0 1810 2905Z"  style="fill:rgb(0,191,255);stroke-width:2.16;stroke:rgb(0,0,0);" />
<text x="1920" y="2850" text-anchor="middle" fill="rgb(0,0,0)" dominant-baseline="central">se întinde coca dreptunghic</text>
<text x="1920" y="2870" text-anchor="middle" fill="rgb(0,0,0)" dominant-baseline="central">cât mai mult</text>
<text x="1920" y="2890" text-anchor="middle" fill="rgb(0,0,0)" dominant-baseline="central">5mm cu sticlă</text>
<polygon points="1920,2935 1916,2924 1925,2924" style="fill:rgb(0,0,0)"/>
<path d="M1920,2905L1920,2929"  style="fill:none;stroke-width:2.16;stroke:rgb(0,0,0);" />
<path d="M1808,2986L2033,2986A15 15 0 0 0 2048 2971L2048,2950A15 15 0 0 0 2033 2935L1808,2935A15 15 0 0 0 1793 2950L1793,2971A15 15 0 0 0 1808 2986Z"  style="fill:rgb(0,191,255);stroke-width:2.16;stroke:rgb(0,0,0);" />
<text x="1920" y="2950" text-anchor="middle" fill="rgb(0,0,0)" dominant-baseline="central">se întinde cremă peste cocă</text>
<text x="1920" y="2970" text-anchor="middle" fill="rgb(0,0,0)" dominant-baseline="central">1/4 din cremă</text>
<polygon points="1920,3016 1916,3004 1925,3004" style="fill:rgb(0,0,0)"/>
<path d="M1920,2986L1920,3010"  style="fill:none;stroke-width:2.16;stroke:rgb(0,0,0);" />
<path d="M1819,3066L2022,3066A15 15 0 0 0 2037 3051L2037,3031A15 15 0 0 0 2022 3016L1819,3016A15 15 0 0 0 1804 3031L1804,3051A15 15 0 0 0 1819 3066Z"  style="fill:rgb(0,191,255);stroke-width:2.16;stroke:rgb(0,0,0);" />
<text x="1920" y="3031" text-anchor="middle" fill="rgb(0,0,0)" dominant-baseline="central">se răsucește felia de cocă</text>
<text x="1920" y="3051" text-anchor="middle" fill="rgb(0,0,0)" dominant-baseline="central">se obține un sul</text>
<polygon points="1920,3096 1916,3084 1925,3084" style="fill:rgb(0,0,0)"/>
<path d="M1920,3066L1920,3090"  style="fill:none;stroke-width:2.16;stroke:rgb(0,0,0);" />
<path d="M1807,3146L2034,3146A15 15 0 0 0 2049 3131L2049,3111A15 15 0 0 0 2034 3096L1807,3096A15 15 0 0 0 1792 3111L1792,3131A15 15 0 0 0 1807 3146Z"  style="fill:rgb(0,191,255);stroke-width:2.16;stroke:rgb(0,0,0);" />
<text x="1920" y="3111" text-anchor="middle" fill="rgb(0,0,0)" dominant-baseline="central">se face la fel</text>
<text x="1920" y="3131" text-anchor="middle" fill="rgb(0,0,0)" dominant-baseline="central">cu cealaltă jumătate de cocă</text>
<polygon points="1920,3176 1916,3165 1925,3165" style="fill:rgb(0,0,0)"/>
<path d="M1920,3146L1920,3171"  style="fill:none;stroke-width:2.16;stroke:rgb(0,0,0);" />
<path d="M1812,3227L2029,3227A15 15 0 0 0 2044 3212L2044,3191A15 15 0 0 0 2029 3176L1812,3176A15 15 0 0 0 1797 3191L1797,3212A15 15 0 0 0 1812 3227Z"  style="fill:rgb(0,191,255);stroke-width:2.16;stroke:rgb(0,0,0);" />
<text x="1920" y="3192" text-anchor="middle" fill="rgb(0,0,0)" dominant-baseline="central">se prind sulurile la un cap</text>
<text x="1920" y="3212" text-anchor="middle" fill="rgb(0,0,0)" dominant-baseline="central">se încalecă una pe cealaltă</text>
<polygon points="1920,3257 1916,3245 1925,3245" style="fill:rgb(0,0,0)"/>
<path d="M1920,3227L1920,3251"  style="fill:none;stroke-width:2.16;stroke:rgb(0,0,0);" />
<path d="M1862,3287L1979,3287A15 15 0 0 0 1994 3272L1994,3272A15 15 0 0 0 1979 3257L1862,3257A15 15 0 0 0 1847 3272L1847,3272A15 15 0 0 0 1862 3287Z"  style="fill:rgb(255,165,0);stroke-width:2.16;stroke:rgb(0,0,0);" />
<text x="1920" y="3272" text-anchor="middle" fill="rgb(0,0,0)" dominant-baseline="central">se pune în tavă</text>
<polygon points="1920,3317 1916,3306 1925,3306" style="fill:rgb(0,0,0)"/>
<path d="M1920,3287L1920,3311"  style="fill:none;stroke-width:2.16;stroke:rgb(0,0,0);" />
<path d="M1787,3347L2054,3347A15 15 0 0 0 2069 3332L2069,3332A15 15 0 0 0 2054 3317L1787,3317A15 15 0 0 0 1772 3332L1772,3332A15 15 0 0 0 1787 3347Z"  style="fill:rgb(255,165,0);stroke-width:2.16;stroke:rgb(0,0,0);" />
<text x="1920" y="3332" text-anchor="middle" fill="rgb(0,0,0)" dominant-baseline="central">se unge cu gălbenuș pe deasupra</text>
<polygon points="1920,3377 1916,3366 1925,3366" style="fill:rgb(0,0,0)"/>
<path d="M1920,3347L1920,3372"  style="fill:none;stroke-width:2.16;stroke:rgb(0,0,0);" />
<path d="M1825,3428L2016,3428A15 15 0 0 0 2031 3413L2031,3392A15 15 0 0 0 2016 3377L1825,3377A15 15 0 0 0 1810 3392L1810,3413A15 15 0 0 0 1825 3428Z"  style="fill:rgb(0,191,255);stroke-width:2.16;stroke:rgb(0,0,0);" />
<text x="1920" y="3392" text-anchor="middle" fill="rgb(0,0,0)" dominant-baseline="central">se repetă pentru cealată</text>
<text x="1920" y="3413" text-anchor="middle" fill="rgb(0,0,0)" dominant-baseline="central">jumătate de cocă</text>
<polygon points="2062,2779 2074,2775 2074,2784" style="fill:rgb(0,0,0)"/>
<path d="M2031,3402L2091,3402L2091,2779L2068,2779"  style="fill:none;stroke-width:2.16;stroke-linejoin:round;stroke:rgb(0,0,0);" />
<polygon points="1920,3458 1916,3446 1925,3446" style="fill:rgb(0,0,0)"/>
<path d="M1920,3428L1920,3452"  style="fill:none;stroke-width:2.16;stroke:rgb(0,0,0);" />
<path d="M1855,3508L1986,3508A15 15 0 0 0 2001 3493L2001,3473A15 15 0 0 0 1986 3458L1855,3458A15 15 0 0 0 1840 3473L1840,3493A15 15 0 0 0 1855 3508Z"  style="fill:rgb(255,165,0);stroke-width:2.16;stroke:rgb(0,0,0);" />
<text x="1920" y="3473" text-anchor="middle" fill="rgb(0,0,0)" dominant-baseline="central">se lasă 10 minute</text>
<text x="1920" y="3493" text-anchor="middle" fill="rgb(0,0,0)" dominant-baseline="central">să se așeze</text>
<polygon points="1920,3538 1916,3527 1925,3527" style="fill:rgb(0,0,0)"/>
<path d="M1920,3508L1920,3532"  style="fill:none;stroke-width:2.16;stroke:rgb(0,0,0);" />
<path d="M1856,3568L1985,3568A15 15 0 0 0 2000 3553L2000,3553A15 15 0 0 0 1985 3538L1856,3538A15 15 0 0 0 1841 3553L1841,3553A15 15 0 0 0 1856 3568Z"  style="fill:rgb(255,165,0);stroke-width:2.16;stroke:rgb(0,0,0);" />
<text x="1920" y="3553" text-anchor="middle" fill="rgb(0,0,0)" dominant-baseline="central">se bagă la cuptor</text>
<polygon points="1920,3598 1916,3587 1925,3587" style="fill:rgb(0,0,0)"/>
<path d="M1920,3568L1920,3593"  style="fill:none;stroke-width:2.16;stroke:rgb(0,0,0);" />
<path d="M1822,3649L2019,3649A15 15 0 0 0 2034 3634L2034,3613A15 15 0 0 0 2019 3598L1822,3598A15 15 0 0 0 1807 3613L1807,3634A15 15 0 0 0 1822 3649Z"  style="fill:rgb(255,165,0);stroke-width:2.16;stroke:rgb(0,0,0);" />
<text x="1920" y="3613" text-anchor="middle" fill="rgb(0,0,0)" dominant-baseline="central">temperatură ridicată 180</text>
<text x="1920" y="3634" text-anchor="middle" fill="rgb(0,0,0)" dominant-baseline="central">20 minute</text>
<polygon points="1920,3679 1916,3667 1925,3667" style="fill:rgb(0,0,0)"/>
<path d="M1920,3649L1920,3673"  style="fill:none;stroke-width:2.16;stroke:rgb(0,0,0);" />
<path d="M1833,3729L2008,3729A15 15 0 0 0 2023 3714L2023,3694A15 15 0 0 0 2008 3679L1833,3679A15 15 0 0 0 1818 3694L1818,3714A15 15 0 0 0 1833 3729Z"  style="fill:rgb(255,165,0);stroke-width:2.16;stroke:rgb(0,0,0);" />
<text x="1920" y="3694" text-anchor="middle" fill="rgb(0,0,0)" dominant-baseline="central">temperatură joasă 160</text>
<text x="1920" y="3714" text-anchor="middle" fill="rgb(0,0,0)" dominant-baseline="central">40 minute</text>
<polygon points="1920,3759 1916,3748 1925,3748" style="fill:rgb(0,0,0)"/>
<path d="M1920,3729L1920,3753"  style="fill:none;stroke-width:2.16;stroke:rgb(0,0,0);" />
<path d="M1868,3810L1973,3810A15 15 0 0 0 1988 3795L1988,3774A15 15 0 0 0 1973 3759L1868,3759A15 15 0 0 0 1853 3774L1853,3795A15 15 0 0 0 1868 3810Z"  style="fill:rgb(255,165,0);stroke-width:2.16;stroke:rgb(0,0,0);" />
<text x="1920" y="3774" text-anchor="middle" fill="rgb(0,0,0)" dominant-baseline="central">cuptor deschis</text>
<text x="1920" y="3794" text-anchor="middle" fill="rgb(0,0,0)" dominant-baseline="central">10 minute</text>
<polygon points="1920,3840 1916,3828 1925,3828" style="fill:rgb(0,0,0)"/>
<path d="M1920,3810L1920,3834"  style="fill:none;stroke-width:2.16;stroke:rgb(0,0,0);" />
<path d="M1858,3890L1983,3890A15 15 0 0 0 1998 3875L1998,3855A15 15 0 0 0 1983 3840L1858,3840A15 15 0 0 0 1843 3855L1843,3875A15 15 0 0 0 1858 3890Z"  style="fill:none;stroke-width:2.16;stroke:rgb(0,0,0);" />
<text x="1920" y="3855" text-anchor="middle" fill="rgb(0,0,0)" dominant-baseline="central">acoperire prosop</text>
<text x="1920" y="3875" text-anchor="middle" fill="rgb(0,0,0)" dominant-baseline="central">gata</text>
</svg>
